<svg aria-hidden="true" style="position: absolute; width: 0; height: 0; overflow: hidden;" version="1.1" xmlns="http://www.w3.org/2000/svg" xmlns:xlink="http://www.w3.org/1999/xlink">
<defs>
<symbol id="settings" viewBox="0 0 18 20">
    <path fill-rule="evenodd" clip-rule="evenodd" d="M11.561 2.19021C10.6169 -0.0920489 7.38417 -0.0920491 6.44004 2.19021C5.96028 3.34996 4.7609 4.04242 3.51665 3.87803C1.06809 3.55454 -0.548251 6.35413 0.95618 8.3129C1.72067 9.30826 1.72067 10.6932 0.95618 11.6885C-0.548251 13.6473 1.06809 16.4469 3.51665 16.1234C4.7609 15.959 5.96028 16.6515 6.44005 17.8112C7.38417 20.0935 10.6169 20.0935 11.561 17.8112C12.0407 16.6515 13.2401 15.959 14.4844 16.1234C16.9329 16.4469 18.5493 13.6473 17.0448 11.6885C16.2804 10.6932 16.2804 9.30826 17.0448 8.31289C18.5493 6.35413 16.9329 3.55454 14.4844 3.87803C13.2401 4.04242 12.0407 3.34996 11.561 2.19021ZM9.00051 13.0007C10.6574 13.0007 12.0005 11.6576 12.0005 10.0007C12.0005 8.34386 10.6574 7.00072 9.00051 7.00072C7.34366 7.00072 6.00051 8.34386 6.00051 10.0007C6.00051 11.6576 7.34366 13.0007 9.00051 13.0007Z" />
</symbol>
<symbol id="account" viewBox="0 0 32 32">
<path d="M15.999 14.545c3.615 0 6.545-2.931 6.545-6.545s-2.93-6.545-6.545-6.545c-3.615 0-6.545 2.931-6.545 6.545s2.931 6.545 6.545 6.545zM4.51 27.641c0.587-5.331 3.147-10.187 11.489-10.187s10.902 4.856 11.489 10.187c0.176 1.597-1.155 2.904-2.761 2.904h-17.455c-1.607 0-2.937-1.307-2.761-2.904z"></path>
</symbol>
<symbol id="add_2" viewBox="0 0 20 20" fill="currentColor">
    <path fill-rule="evenodd" clip-rule="evenodd" d="M10 0C10.5523 0 11 0.447715 11 1L11 19C11 19.5523 10.5523 20 10 20C9.44772 20 9 19.5523 9 19L9 1C9 0.447715 9.44772 0 10 0Z" />
    <path fill-rule="evenodd" clip-rule="evenodd" d="M20 10C20 10.5523 19.5523 11 19 11L1 11C0.447716 11 -3.04427e-08 10.5523 -6.79955e-08 10C-1.05548e-07 9.44772 0.447716 9 1 9L19 9C19.5523 9 20 9.44772 20 10Z" />
</symbol>
<symbol id="add_fill_reverse" viewBox="0 0 32 32">
    <path fill="#F0F3F7" d="M30.545 16c0 8.033-6.512 14.545-14.545 14.545s-14.545-6.512-14.545-14.545c0-8.033 6.512-14.545 14.545-14.545s14.545 6.512 14.545 14.545z"></path>
    <path fill="#3A4556" style="fill: var(--color2, #3A4556)" d="M17.455 10.182c0-0.803-0.651-1.455-1.455-1.455s-1.455 0.651-1.455 1.455v4.364h-4.364c-0.803 0-1.455 0.651-1.455 1.455s0.651 1.455 1.455 1.455h4.364v4.364c0 0.803 0.651 1.455 1.455 1.455s1.455-0.651 1.455-1.455v-4.364h4.364c0.803 0 1.455-0.651 1.455-1.455s-0.651-1.455-1.455-1.455h-4.364v-4.364z"></path>
</symbol>
<symbol id="add_fill" viewBox="0 0 32 32">
    <path d="M30.545 16c0 8.033-6.512 14.545-14.545 14.545s-14.545-6.512-14.545-14.545c0-8.033 6.512-14.545 14.545-14.545s14.545 6.512 14.545 14.545z"></path>
    <path fill="#fff" style="fill: var(--color2, #fff)" d="M17.455 10.182c0-0.803-0.651-1.455-1.455-1.455s-1.455 0.651-1.455 1.455v4.364h-4.364c-0.803 0-1.455 0.651-1.455 1.455s0.651 1.455 1.455 1.455h4.364v4.364c0 0.803 0.651 1.455 1.455 1.455s1.455-0.651 1.455-1.455v-4.364h4.364c0.803 0 1.455-0.651 1.455-1.455s-0.651-1.455-1.455-1.455h-4.364v-4.364z"></path>
</symbol>
<symbol id="add" viewBox="0 0 32 32">
    <path d="M27.636 16c0-6.427-5.21-11.636-11.636-11.636s-11.636 5.21-11.636 11.636c0 6.427 5.21 11.636 11.636 11.636s11.636-5.21 11.636-11.636zM30.545 16c0 8.033-6.512 14.545-14.545 14.545s-14.545-6.512-14.545-14.545c0-8.033 6.512-14.545 14.545-14.545s14.545 6.512 14.545 14.545zM16 8.727c-0.803 0-1.455 0.651-1.455 1.455v4.364h-4.364c-0.803 0-1.455 0.651-1.455 1.455s0.651 1.455 1.455 1.455h4.364v4.364c0 0.803 0.651 1.455 1.455 1.455s1.455-0.651 1.455-1.455v-4.364h4.364c0.803 0 1.455-0.651 1.455-1.455s-0.651-1.455-1.455-1.455h-4.364v-4.364c0-0.803-0.651-1.455-1.455-1.455z"></path>
</symbol>
<symbol id="analysis" viewBox="0 0 32 32">
    <path d="M4.364 16.918v-14.009c0-0.803-0.651-1.455-1.455-1.455s-1.455 0.651-1.455 1.455v27.636h27.636c0.803 0 1.455-0.651 1.455-1.455s-0.651-1.455-1.455-1.455h-24.727v-6.793c0.75-0.954 1.828-1.87 3.124-2.149 1.341-0.289 3.348 0.017 6.029 2.697l0.057 0.057 0.063 0.050c1.173 0.939 2.499 1.353 3.826 1.221 1.305-0.13 2.468-0.775 3.384-1.692 1.813-1.813 2.818-4.813 2.419-8.082l-0.002-0.029c-0.002-0.041-0.006-0.109-0.007-0.199-0.003-0.18-0.001-0.446 0.023-0.768 0.049-0.653 0.187-1.493 0.521-2.309 0.331-0.808 0.839-1.56 1.62-2.115 0.774-0.549 1.922-0.982 3.67-0.982 0.803 0 1.455-0.651 1.455-1.455s-0.651-1.455-1.455-1.455c-2.253 0-4.013 0.567-5.353 1.518-1.332 0.945-2.142 2.194-2.629 3.385-0.23 0.563-0.392 1.12-0.505 1.642h-0.038v0.181c-0.101 0.505-0.156 0.971-0.186 1.368-0.032 0.428-0.036 0.787-0.031 1.044 0.002 0.129 0.007 0.233 0.012 0.309 0.002 0.038 0.004 0.069 0.006 0.092l0.002 0.029 0.001 0.010 0 0.004 0 0.002c0 0.001 0 0.002 1.449-0.13l-1.449 0.132 0.002 0.024 0.003 0.024c0.317 2.534-0.495 4.61-1.585 5.7-0.538 0.538-1.104 0.803-1.616 0.854-0.477 0.048-1.040-0.074-1.662-0.553-3.114-3.087-6.055-3.978-8.636-3.422-0.948 0.204-1.785 0.591-2.512 1.068zM8.283 13.091h-1.535v-2.909h1.535v2.909zM12.889 13.091h-1.535v-2.909h1.535v2.909zM17.495 13.091h-1.535v-2.909h1.535v2.909zM26.707 13.091h-1.535v-2.909h1.535v2.909zM30.545 13.091h-0.768v-2.909h0.768v2.909z"></path>
</symbol>
<symbol id="analytics" viewBox="0 0 32 32">
    <path d="M1.6 0c0.884 0 1.6 0.716 1.6 1.6v27.2h27.2c0.884 0 1.6 0.716 1.6 1.6s-0.716 1.6-1.6 1.6h-28.8c-0.884 0-1.6-0.716-1.6-1.6v-28.8c0-0.884 0.716-1.6 1.6-1.6zM25.6 4.8c0-0.884 0.716-1.6 1.6-1.6h3.2c0.884 0 1.6 0.716 1.6 1.6v19.2c0 0.884-0.716 1.6-1.6 1.6h-3.2c-0.884 0-1.6-0.716-1.6-1.6v-19.2zM17.6 8c-0.884 0-1.6 0.716-1.6 1.6v14.4c0 0.884 0.716 1.6 1.6 1.6h3.2c0.884 0 1.6-0.716 1.6-1.6v-14.4c0-0.884-0.716-1.6-1.6-1.6h-3.2zM8 12.8c-0.884 0-1.6 0.716-1.6 1.6v9.6c0 0.884 0.716 1.6 1.6 1.6h3.2c0.884 0 1.6-0.716 1.6-1.6v-9.6c0-0.884-0.716-1.6-1.6-1.6h-3.2z"></path>
</symbol>
<symbol id="attach" viewBox="0 0 32 32">
    <path d="M13.818 4.364c-2.008 0-3.636 1.628-3.636 3.636v15.049c0 2.534 2.054 4.587 4.587 4.587h1.892c2.848 0 5.157-2.309 5.157-5.157v-16.661c0-0.803 0.651-1.455 1.455-1.455s1.455 0.651 1.455 1.455v16.661c0 4.455-3.611 8.066-8.066 8.066h-1.892c-4.14 0-7.496-3.356-7.496-7.496v-15.049c0-3.615 2.93-6.545 6.545-6.545s6.545 2.93 6.545 6.545v12.364c0 2.41-1.954 4.364-4.364 4.364s-4.364-1.954-4.364-4.364v-10.182c0-0.803 0.651-1.455 1.455-1.455s1.455 0.651 1.455 1.455v10.182c0 0.803 0.651 1.455 1.455 1.455s1.455-0.651 1.455-1.455v-12.364c0-2.008-1.628-3.636-3.636-3.636z"></path>
</symbol>
<symbol id="audience" viewBox="0 0 32 32">
    <path d="M10.908 14.545c2.812 0 5.091-2.279 5.091-5.091s-2.279-5.091-5.091-5.091c-2.812 0-5.091 2.279-5.091 5.091s2.279 5.091 5.091 5.091zM1.608 26.187c0.539-4.61 2.676-8.733 9.3-8.733s8.76 4.122 9.299 8.733c0.187 1.596-1.147 2.904-2.754 2.904h-13.091c-1.607 0-2.941-1.308-2.754-2.904zM27.635 10.182c0 2.41-1.954 4.364-4.364 4.364s-4.364-1.954-4.364-4.364 1.954-4.364 4.364-4.364c2.41 0 4.364 1.954 4.364 4.364zM18.351 18.070c1.894 1.637 3.321 4.070 3.954 6.657h4.724c1.607 0 2.959-1.312 2.725-2.901-0.464-3.154-1.977-5.826-6.362-5.826-2.521 0-4.081 0.813-5.042 2.070z"></path>
</symbol>
<symbol id="database" viewBox="0 0 20 20">
    <path d="M10.0032 0C5.45384 0 1.76562 1.34444 1.76562 3.00369V5.46839C1.76562 7.12785 5.45384 8.47187 10.0032 8.47187C14.5524 8.47187 18.2406 7.12764 18.2406 5.46839V3.00369C18.2406 1.34444 14.5524 0 10.0032 0Z" />
    <path d="M10.002 9.90808C5.65854 9.90808 2.07758 8.68162 1.76445 7.12646C1.74952 7.2007 1.76445 11.1968 1.76445 11.1968C1.76445 12.8565 5.45266 14.2005 10.002 14.2005C14.5512 14.2005 18.2394 12.856 18.2394 11.1968C18.2394 11.1968 18.2487 7.20049 18.234 7.12646C17.9204 8.68183 14.3453 9.90808 10.002 9.90808Z" />
    <path d="M18.2317 12.9258C17.9188 14.4801 14.3456 15.7072 10.0021 15.7072C5.65861 15.7072 2.07681 14.4799 1.76367 12.9258L1.76451 16.9963C1.76451 18.6558 5.45273 19.9998 10.0021 19.9998C14.5513 19.9998 18.2395 18.6554 18.2395 16.9963L18.2317 12.9258Z" />
</symbol>
<symbol id="burger" viewBox="0 0 32 32">
    <path d="M0 5.333c0-1.473 1.194-2.667 2.667-2.667h26.667c1.473 0 2.667 1.194 2.667 2.667s-1.194 2.667-2.667 2.667h-26.667c-1.473 0-2.667-1.194-2.667-2.667z"></path>
    <path d="M0 16c0-1.473 1.194-2.667 2.667-2.667h26.667c1.473 0 2.667 1.194 2.667 2.667s-1.194 2.667-2.667 2.667h-26.667c-1.473 0-2.667-1.194-2.667-2.667z"></path>
    <path d="M0 26.667c0-1.473 1.194-2.667 2.667-2.667h26.667c1.473 0 2.667 1.194 2.667 2.667s-1.194 2.667-2.667 2.667h-26.667c-1.473 0-2.667-1.194-2.667-2.667z"></path>
</symbol>
<symbol id="calendar" viewBox="0 0 32 32">
    <path d="M10.182 1.455c0.803 0 1.455 0.651 1.455 1.455v1.455h8.727v-1.455c0-0.803 0.651-1.455 1.455-1.455s1.455 0.651 1.455 1.455v1.455h2.909c1.607 0 2.909 1.302 2.909 2.909v20.364c0 1.607-1.302 2.909-2.909 2.909h-20.364c-1.607 0-2.909-1.302-2.909-2.909v-20.364c0-1.607 1.302-2.909 2.909-2.909h2.909v-1.455c0-0.803 0.651-1.455 1.455-1.455zM5.818 7.273v4.364h20.364v-4.364h-20.364zM5.818 14.545v13.091h20.364v-13.091h-20.364z"></path>
</symbol>
<symbol id="change" viewBox="0 0 32 32">
    <path d="M23.699 15.574c-0.568-0.568-0.568-1.489 0-2.057l1.881-1.881h-16.852c-0.803 0-1.455-0.651-1.455-1.455s0.651-1.455 1.455-1.455h16.852l-1.881-1.881c-0.568-0.568-0.568-1.489 0-2.057s1.489-0.568 2.057 0l3.849 3.849c0.852 0.852 0.852 2.233 0 3.086l-3.849 3.849c-0.568 0.568-1.489 0.568-2.057 0zM8.301 16.426c0.568 0.568 0.568 1.489 0 2.057l-1.881 1.881h16.852c0.803 0 1.455 0.651 1.455 1.455s-0.651 1.455-1.455 1.455h-16.852l1.881 1.881c0.568 0.568 0.568 1.489 0 2.057s-1.489 0.568-2.057 0l-3.849-3.849c-0.852-0.852-0.852-2.234 0-3.086l3.849-3.849c0.568-0.568 1.489-0.568 2.057 0z"></path>
</symbol>
<symbol id="check" viewBox="0 0 32 32">
    <path d="M1.455 4.364c0-1.607 1.302-2.909 2.909-2.909h23.273c1.607 0 2.909 1.302 2.909 2.909v23.273c0 1.607-1.302 2.909-2.909 2.909h-23.273c-1.607 0-2.909-1.302-2.909-2.909v-23.273z"></path>
    <path fill="#fff" d="M13.648 23.119l-5.895-5.31c-0.597-0.538-0.645-1.457-0.107-2.054s1.457-0.645 2.054-0.107l3.793 3.417 8.726-9.158c0.554-0.582 1.475-0.604 2.056-0.050s0.604 1.475 0.050 2.056l-10.677 11.206z"></path>
</symbol>
<symbol id="close" viewBox="0 0 32 32">
    <path d="M28.848 4.483c0.568-0.568 0.568-1.489 0-2.057s-1.489-0.568-2.057 0l-11.154 11.154-11.154-11.154c-0.568-0.568-1.489-0.568-2.057 0s-0.568 1.489 0 2.057l11.154 11.154-11.154 11.154c-0.568 0.568-0.568 1.489 0 2.057s1.489 0.568 2.057 0l11.154-11.154 11.154 11.154c0.568 0.568 1.489 0.568 2.057 0s0.568-1.489 0-2.057l-11.154-11.154 11.154-11.154z"></path>
</symbol>
<symbol id="company" viewBox="0 0 32 32">
    <path d="M4.8 0c-2.651 0-4.8 2.149-4.8 4.8v11.2h20.8v-16h-16zM24 0v16h8v-11.2c0-2.651-2.149-4.8-4.8-4.8h-3.2zM32 19.2h-32v8c0 2.651 2.149 4.8 4.8 4.8h22.4c2.651 0 4.8-2.149 4.8-4.8v-8z"></path>
</symbol>
<symbol id="copy" viewBox="0 0 32 32" fill="currentColor">
    <path d="M10.182 4.364c0-1.607 1.302-2.909 2.909-2.909h14.545c1.607 0 2.909 1.302 2.909 2.909v14.545c0 1.607-1.302 2.909-2.909 2.909h-2.909v-11.636c0-1.607-1.302-2.909-2.909-2.909h-11.636v-2.909zM4.364 10.182c-1.607 0-2.909 1.302-2.909 2.909v14.545c0 1.607 1.302 2.909 2.909 2.909h14.545c1.607 0 2.909-1.302 2.909-2.909v-14.545c0-1.607-1.302-2.909-2.909-2.909h-14.545z"></path>
</symbol>
<symbol id="coupons" viewBox="0 0 32 32">
    <path d="M1.6 4.8h28.8c0.884 0 1.6 0.716 1.6 1.6v6.4c-1.767 0-3.2 1.433-3.2 3.2s1.433 3.2 3.2 3.2v6.4c0 0.884-0.716 1.6-1.6 1.6h-28.8c-0.884 0-1.6-0.716-1.6-1.6v-6.4c1.767 0 3.2-1.433 3.2-3.2s-1.433-3.2-3.2-3.2v-6.4c0-0.884 0.716-1.6 1.6-1.6zM20.8 24c0.884 0 1.6-0.716 1.6-1.6s-0.716-1.6-1.6-1.6c-0.884 0-1.6 0.716-1.6 1.6s0.716 1.6 1.6 1.6zM12.8 9.6c0-0.884-0.716-1.6-1.6-1.6s-1.6 0.716-1.6 1.6c0 0.884 0.716 1.6 1.6 1.6s1.6-0.716 1.6-1.6zM20.068 10.526c0.374-0.648 0.152-1.476-0.496-1.849s-1.476-0.152-1.849 0.496l-7.446 12.897c-0.374 0.648-0.152 1.476 0.496 1.849s1.476 0.152 1.849-0.496l7.446-12.897z"></path>
</symbol>
<symbol id="create" viewBox="0 0 32 32">
    <path d="M18.182 2.715c-1.35-0.78-3.014-0.78-4.364 0l-8.233 4.753c-1.35 0.78-2.182 2.22-2.182 3.779v9.507c0 1.559 0.832 3 2.182 3.779l8.233 4.753c1.35 0.779 3.014 0.779 4.364 0l8.233-4.753c1.35-0.779 2.182-2.22 2.182-3.779v-9.507c0-1.559-0.832-3-2.182-3.779l-8.233-4.753zM16 8.728c0.803 0 1.455 0.651 1.455 1.455v4.364h4.364c0.803 0 1.455 0.651 1.455 1.455s-0.651 1.455-1.455 1.455h-4.364v4.364c0 0.803-0.651 1.455-1.455 1.455s-1.455-0.651-1.455-1.455v-4.364h-4.364c-0.803 0-1.455-0.651-1.455-1.455s0.651-1.455 1.455-1.455h4.364v-4.364c0-0.803 0.651-1.455 1.455-1.455z"></path>
</symbol>
<symbol id="datalab" viewBox="0 0 32 32">
    <path d="M22.973 8.776c0.271 0.294 0.582 0.55 0.924 0.761l-2.008 9.373c-0.024-0-0.047-0-0.071-0-3.213 0-5.818 2.605-5.818 5.818s2.605 5.818 5.818 5.818c3.213 0 5.818-2.605 5.818-5.818 0-2.165-1.182-4.053-2.936-5.055l2.041-9.526c2.145-0.275 3.803-2.108 3.803-4.328 0-2.41-1.954-4.364-4.364-4.364s-4.364 1.954-4.364 4.364c0 0.095 0.003 0.19 0.009 0.284l-12.801 5.486c-0.797-0.865-1.94-1.406-3.208-1.406-2.41 0-4.364 1.954-4.364 4.364s1.954 4.364 4.364 4.364 4.364-1.954 4.364-4.364c0-0.095-0.003-0.19-0.009-0.284l12.801-5.486z"></path>
</symbol>
<symbol id="delete" viewBox="0 0 32 32">
    <path d="M4.364 7.273h23.273c0-1.607-1.302-2.909-2.909-2.909h-0.176c-0.818 0-1.603-0.325-2.182-0.904l-1.153-1.153c-0.546-0.546-1.286-0.852-2.057-0.852h-6.317c-0.772 0-1.511 0.306-2.057 0.852l-1.153 1.153c-0.579 0.579-1.363 0.904-2.182 0.904h-0.176c-1.607 0-2.909 1.302-2.909 2.909zM26.182 10.182h-20.364v17.455c0 1.607 1.302 2.909 2.909 2.909h14.545c1.607 0 2.909-1.302 2.909-2.909v-17.455z"></path>
</symbol>
<symbol id="done_fill" viewBox="0 0 32 32">
    <path d="M30.545 16c0 8.033-6.512 14.545-14.545 14.545s-14.545-6.512-14.545-14.545c0-8.033 6.512-14.545 14.545-14.545s14.545 6.512 14.545 14.545z"></path>
    <path fill="#fff" style="fill: var(--color2, #fff)" d="M13.219 23.011l-6.733-4.333c-0.676-0.435-0.871-1.335-0.436-2.010s1.335-0.871 2.010-0.436l4.892 3.148 10.818-9.461c0.605-0.529 1.523-0.467 2.052 0.137s0.467 1.524-0.137 2.052l-12.466 10.902z"></path>
</symbol>
<symbol id="done" viewBox="0 0 32 32">
    <path d="M11.703 26.707l-9.741-8.358c-0.61-0.523-0.68-1.441-0.157-2.051s1.441-0.68 2.051-0.157l7.696 6.603 16.51-16.502c0.568-0.568 1.489-0.568 2.057 0s0.568 1.489-0.001 2.057l-18.416 18.407z"></path>
</symbol>
<symbol id="download" viewBox="0 0 32 32">
    <path d="M20.79 16.426l-3.335 3.335v-16.852c0-0.803-0.651-1.455-1.455-1.455s-1.455 0.651-1.455 1.455v16.852l-3.335-3.335c-0.568-0.568-1.489-0.568-2.057 0s-0.568 1.489 0 2.057l5.304 5.304c0.852 0.852 2.234 0.852 3.086 0l5.304-5.304c0.568-0.568 0.568-1.489 0-2.057s-1.489-0.568-2.057 0zM4.364 17.455c0-0.803-0.651-1.455-1.455-1.455s-1.455 0.651-1.455 1.455v8.727c0 2.41 1.954 4.364 4.364 4.364h20.364c2.41 0 4.364-1.954 4.364-4.364v-8.727c0-0.803-0.651-1.455-1.455-1.455s-1.455 0.651-1.455 1.455v8.727c0 0.803-0.651 1.455-1.455 1.455h-20.364c-0.803 0-1.455-0.651-1.455-1.455v-8.727z"></path>
</symbol>
<symbol id="dropdown" viewBox="0 0 32 32">
    <path d="M14.713 23.537l-13.63-14.311c-1.078-1.132-0.276-3.004 1.287-3.004h27.259c1.563 0 2.365 1.872 1.287 3.004l-13.63 14.311c-0.701 0.736-1.874 0.736-2.575 0z"></path>
</symbol>
<symbol id="edit" viewBox="0 0 32 32">
    <path d="M28.946 1.131c-0.625-0.625-1.638-0.625-2.263 0l-3.394 3.394 4.525 4.525 3.394-3.394c0.625-0.625 0.625-1.638 0-2.263l-2.263-2.263zM25.552 11.313l-4.526-4.526-18.191 18.191c-0.189 0.189-0.328 0.423-0.404 0.68l-0.943 3.206c-0.357 1.215 0.772 2.344 1.986 1.986l3.597-1.058 18.479-18.479z"></path>
</symbol>
<symbol id="filter_2" viewBox="0 0 32 32" fill="currentColor">
    <path d="M4.312 1.455c-1.189 0-1.876 1.349-1.176 2.31l9.956 13.69v12.641c0 0.541 0.569 0.892 1.053 0.65l3.962-1.981c0.493-0.246 0.804-0.75 0.804-1.301v-10.010l9.956-13.69c0.699-0.961 0.012-2.31-1.176-2.31h-23.378z"></path>
</symbol>
<symbol id="filter_group" viewBox="0 0 32 32">
    <path d="M0.383 2.876c-0.916-1.166-0.086-2.876 1.398-2.876h22.736c1.483 0 2.314 1.71 1.398 2.876l-9.546 12.15v10.854c0 0.594-0.297 1.149-0.792 1.479l-4.266 2.844c-0.591 0.394-1.382-0.030-1.382-0.74v-14.438l-9.546-12.15zM19.718 13.843c-0.412-0.589 0.009-1.399 0.728-1.399h10.393c0.719 0 1.141 0.809 0.728 1.399l-4.391 6.272v4.633c0 0.471-0.187 0.924-0.521 1.257l-1.030 1.030c-0.56 0.56-1.518 0.163-1.518-0.628v-6.292l-4.391-6.272z"></path>
</symbol>
<symbol id="filter" viewBox="0 0 32 32">
    <path d="M27.2 4.8c0-0.884-0.716-1.6-1.6-1.6s-1.6 0.716-1.6 1.6v6.4c0 0.884 0.716 1.6 1.6 1.6s1.6-0.716 1.6-1.6v-1.6h3.2c0.884 0 1.6-0.716 1.6-1.6s-0.716-1.6-1.6-1.6h-3.2v-1.6zM0 8c0-0.884 0.716-1.6 1.6-1.6h17.6c0.884 0 1.6 0.716 1.6 1.6s-0.716 1.6-1.6 1.6h-17.6c-0.884 0-1.6-0.716-1.6-1.6zM4.8 27.2c0 0.884 0.716 1.6 1.6 1.6s1.6-0.716 1.6-1.6v-6.4c0-0.884-0.716-1.6-1.6-1.6s-1.6 0.716-1.6 1.6v1.6h-3.2c-0.884 0-1.6 0.716-1.6 1.6s0.716 1.6 1.6 1.6h3.2v1.6zM32 24c0 0.884-0.716 1.6-1.6 1.6h-17.6c-0.884 0-1.6-0.716-1.6-1.6s0.716-1.6 1.6-1.6h17.6c0.884 0 1.6 0.716 1.6 1.6zM12.8 19.2c0 0.884 0.716 1.6 1.6 1.6s1.6-0.716 1.6-1.6v-6.4c0-0.884-0.716-1.6-1.6-1.6s-1.6 0.716-1.6 1.6v1.6h-11.2c-0.884 0-1.6 0.716-1.6 1.6s0.716 1.6 1.6 1.6h11.2v1.6zM19.2 16c0-0.884 0.716-1.6 1.6-1.6h9.6c0.884 0 1.6 0.716 1.6 1.6s-0.716 1.6-1.6 1.6h-9.6c-0.884 0-1.6-0.716-1.6-1.6z"></path>
</symbol>
<symbol id="help_fill" viewBox="0 0 32 32">
    <path d="M30.545 16c0 8.033-6.512 14.545-14.545 14.545s-14.545-6.512-14.545-14.545c0-8.033 6.512-14.545 14.545-14.545s14.545 6.512 14.545 14.545z"></path>
    <path fill="#fff" style="fill: var(--color2, #fff)" d="M14.839 19.146c0-0.862 0.105-1.548 0.314-2.059s0.591-1.013 1.145-1.505c0.56-0.499 0.933-0.902 1.117-1.21 0.185-0.314 0.277-0.643 0.277-0.988 0-1.040-0.48-1.56-1.44-1.56-0.455 0-0.822 0.142-1.099 0.425-0.271 0.277-0.412 0.662-0.425 1.154h-2.678c0.012-1.176 0.391-2.096 1.136-2.761 0.751-0.665 1.773-0.997 3.065-0.997 1.305 0 2.318 0.317 3.038 0.951 0.72 0.628 1.080 1.517 1.080 2.668 0 0.523-0.117 1.019-0.351 1.486-0.234 0.462-0.643 0.976-1.228 1.542l-0.748 0.711c-0.468 0.449-0.736 0.976-0.803 1.579l-0.037 0.563h-2.364zM14.572 21.98c0-0.412 0.138-0.751 0.415-1.016 0.283-0.271 0.643-0.406 1.080-0.406s0.794 0.135 1.071 0.406c0.283 0.265 0.425 0.603 0.425 1.016 0 0.406-0.138 0.742-0.415 1.006-0.271 0.265-0.631 0.397-1.080 0.397s-0.813-0.132-1.089-0.397c-0.271-0.265-0.406-0.6-0.406-1.006z"></path>
</symbol>
<symbol id="help" viewBox="0 0 32 32">
    <path d="M16 27.636c-6.427 0-11.636-5.21-11.636-11.636s5.21-11.636 11.636-11.636c6.427 0 11.636 5.21 11.636 11.636s-5.21 11.636-11.636 11.636zM16 30.545c8.033 0 14.545-6.512 14.545-14.545s-6.512-14.545-14.545-14.545c-8.033 0-14.545 6.512-14.545 14.545s6.512 14.545 14.545 14.545z"></path>
    <path d="M14.839 19.146c0-0.862 0.105-1.548 0.314-2.059s0.591-1.013 1.145-1.505c0.56-0.499 0.933-0.902 1.117-1.21 0.185-0.314 0.277-0.643 0.277-0.988 0-1.040-0.48-1.56-1.44-1.56-0.455 0-0.822 0.142-1.099 0.425-0.271 0.277-0.412 0.662-0.425 1.154h-2.678c0.012-1.176 0.391-2.096 1.136-2.761 0.751-0.665 1.773-0.997 3.065-0.997 1.305 0 2.318 0.317 3.038 0.951 0.72 0.628 1.080 1.517 1.080 2.668 0 0.523-0.117 1.019-0.351 1.486-0.234 0.462-0.643 0.976-1.228 1.542l-0.748 0.711c-0.468 0.449-0.736 0.976-0.803 1.579l-0.037 0.563h-2.364zM14.572 21.98c0-0.412 0.138-0.751 0.415-1.016 0.283-0.271 0.643-0.406 1.080-0.406s0.794 0.135 1.071 0.406c0.283 0.265 0.425 0.603 0.425 1.016 0 0.406-0.138 0.742-0.415 1.006-0.271 0.265-0.631 0.397-1.080 0.397s-0.813-0.132-1.089-0.397c-0.271-0.265-0.406-0.6-0.406-1.006z"></path>
</symbol>
<symbol id="info_fill" viewBox="0 0 32 32">
    <path d="M30.545 16c0 8.033-6.512 14.545-14.545 14.545s-14.545-6.512-14.545-14.545c0-8.033 6.512-14.545 14.545-14.545s14.545 6.512 14.545 14.545z"></path>
    <path fill="white" style="fill: var(--orange40, #fff)" d="M16 11.636c0.803 0 1.455-0.651 1.455-1.455s-0.651-1.455-1.455-1.455c-0.803 0-1.455 0.651-1.455 1.455s0.651 1.455 1.455 1.455zM17.455 16c0-0.803-0.651-1.455-1.455-1.455s-1.455 0.651-1.455 1.455v5.818c0 0.803 0.651 1.455 1.455 1.455s1.455-0.651 1.455-1.455v-5.818z"></path>
</symbol>
<symbol id="info" viewBox="0 0 32 32">
    <path d="M27.636 16c0-6.427-5.21-11.636-11.636-11.636s-11.636 5.21-11.636 11.636c0 6.427 5.21 11.636 11.636 11.636s11.636-5.21 11.636-11.636zM30.545 16c0 8.033-6.512 14.545-14.545 14.545s-14.545-6.512-14.545-14.545c0-8.033 6.512-14.545 14.545-14.545s14.545 6.512 14.545 14.545zM16 11.636c-0.803 0-1.455-0.651-1.455-1.455s0.651-1.455 1.455-1.455c0.803 0 1.455 0.651 1.455 1.455s-0.651 1.455-1.455 1.455zM17.455 16v5.818c0 0.803-0.651 1.455-1.455 1.455s-1.455-0.651-1.455-1.455v-5.818c0-0.803 0.651-1.455 1.455-1.455s1.455 0.651 1.455 1.455z"></path>
</symbol>
<symbol id="logout" viewBox="0 0 32 32">
    <path d="M4.364 1.455c-1.607 0-2.909 1.302-2.909 2.909v23.273c0 1.607 1.302 2.909 2.909 2.909h23.273c1.607 0 2.909-1.302 2.909-2.909v-10.19h-12.578l3.926 3.926c0.53 0.53 0.53 1.389 0 1.919s-1.389 0.53-1.919 0l-6.178-6.178c-0.568-0.568-0.568-1.489 0-2.057l6.178-6.178c0.53-0.53 1.389-0.53 1.919 0s0.53 1.389 0 1.919l-3.927 3.927h12.58v-10.361c0-1.607-1.302-2.909-2.909-2.909h-23.273z"></path>
</symbol>
<symbol id="message" viewBox="0 0 32 32">
    <path d="M1.455 9.508l13.201 10.201c0.8 0.618 1.921 0.606 2.707-0.031l13.183-10.672v14.267c0 1.607-1.302 2.909-2.909 2.909h-23.273c-1.607 0-2.909-1.302-2.909-2.909v-13.765zM2.411 6.571c0.516-0.468 1.201-0.752 1.952-0.752h23.273c0.598 0 1.155 0.181 1.617 0.49l-13.274 10.746-13.568-10.484z"></path>
</symbol>
<symbol id="minus" viewBox="0 0 32 32">
    <path d="M29.091 16c0 0.803-0.651 1.455-1.455 1.455h-23.273c-0.803 0-1.455-0.651-1.455-1.455s0.651-1.455 1.455-1.455h23.273c0.803 0 1.455 0.651 1.455 1.455z"></path>
</symbol>
<symbol id="more" viewBox="0 0 32 32">
    <path d="M19.636 5.091c0 2.008-1.628 3.636-3.636 3.636s-3.636-1.628-3.636-3.636c0-2.008 1.628-3.636 3.636-3.636s3.636 1.628 3.636 3.636zM19.636 16c0 2.008-1.628 3.636-3.636 3.636s-3.636-1.628-3.636-3.636c0-2.008 1.628-3.636 3.636-3.636s3.636 1.628 3.636 3.636zM16 30.545c2.008 0 3.636-1.628 3.636-3.636s-1.628-3.636-3.636-3.636c-2.008 0-3.636 1.628-3.636 3.636s1.628 3.636 3.636 3.636z"></path>
</symbol>
<symbol id="next" viewBox="0 0 32 32">
    <path d="M9.153 27.21c-0.568-0.568-0.568-1.489 0-2.057l9.153-9.153-9.153-9.153c-0.568-0.568-0.568-1.489 0-2.057s1.489-0.568 2.057 0l9.668 9.668c0.852 0.852 0.852 2.234 0 3.086l-9.668 9.668c-0.568 0.568-1.489 0.568-2.057 0z"></path>
</symbol>
<symbol id="notification" viewBox="0 0 32 32">
    <path d="M16.002 0c-0.884 0-1.6 0.716-1.6 1.6v0.133c-4.54 0.762-8 4.71-8 9.467v6.4l-3.346 5.577c-0.64 1.066 0.128 2.423 1.372 2.423h23.148c1.244 0 2.012-1.357 1.372-2.423l-3.346-5.577v-6.4c0-4.757-3.46-8.706-8-9.467v-0.133c0-0.884-0.716-1.6-1.6-1.6zM16.002 32c1.767 0 3.2-1.433 3.2-3.2h-6.4c0 1.767 1.433 3.2 3.2 3.2z"></path>
</symbol>
<symbol id="p2p" viewBox="0 0 32 32">
    <path d="M17.524 0c-0.842 0-1.524 0.682-1.524 1.524v12.19c0 0.842 0.682 1.524 1.524 1.524h12.19c0.842 0 1.524-0.682 1.524-1.524v-10.667c0-0.842-0.682-1.524-1.524-1.524h-6.095c0-0.842-0.682-1.524-1.524-1.524h-4.571zM8.381 16.762c0-0.842-0.682-1.524-1.524-1.524h-4.571c-0.842 0-1.524 0.682-1.524 1.524v12.19c0 0.842 0.682 1.524 1.524 1.524h12.19c0.842 0 1.524-0.682 1.524-1.524v-10.667c0-0.842-0.682-1.524-1.524-1.524h-6.095zM6.601 8.464c-0.929 1.393-1.268 3.167-1.268 4.488 0 0.842-0.682 1.524-1.524 1.524s-1.524-0.682-1.524-1.524c0-1.727 0.423-4.143 1.78-6.179 1.088-1.631 2.743-2.959 5.079-3.484l-0.238-0.206c-0.636-0.551-0.705-1.513-0.154-2.149s1.513-0.705 2.149-0.154l2.8 2.425c0.802 0.695 0.846 1.925 0.096 2.675l-2.816 2.816c-0.595 0.595-1.56 0.595-2.155 0-0.574-0.574-0.594-1.491-0.062-2.089-0.973 0.434-1.662 1.104-2.164 1.857zM25.399 22.774c0.929-1.393 1.268-3.167 1.268-4.488 0-0.842 0.682-1.524 1.524-1.524s1.524 0.682 1.524 1.524c0 1.727-0.423 4.143-1.78 6.179-1.088 1.631-2.743 2.959-5.080 3.484l0.238 0.206c0.636 0.551 0.705 1.513 0.154 2.149s-1.513 0.705-2.149 0.154l-2.8-2.425c-0.802-0.695-0.846-1.925-0.096-2.675l2.816-2.816c0.595-0.595 1.56-0.595 2.155 0 0.574 0.574 0.594 1.491 0.062 2.089 0.973-0.434 1.662-1.104 2.164-1.857z"></path>
</symbol>
<symbol id="participants" viewBox="0 0 19 20">
    <path fill-rule="evenodd" clip-rule="evenodd" d="M13.9995 5C13.9995 7.76142 11.7609 10 8.99945 10C6.23803 10 3.99945 7.76142 3.99945 5C3.99945 2.23858 6.23803 0 8.99945 0C11.7609 0 13.9995 2.23858 13.9995 5ZM8.99947 12C2.82641 12 0.747451 13.3142 0.181392 17.0077C-0.069599 18.6455 1.34261 20 2.99947 20H8.99947V12ZM10.9995 12C10.9995 11.4477 11.4472 11 11.9995 11H17.9995C18.5517 11 18.9995 11.4477 18.9995 12V19C18.9995 19.5523 18.5517 20 17.9995 20H11.9995C11.4472 20 10.9995 19.5523 10.9995 19V12ZM12.9995 14C12.9995 13.4477 13.4472 13 13.9995 13H15.9995C16.5517 13 16.9995 13.4477 16.9995 14C16.9995 14.5523 16.5517 15 15.9995 15H13.9995C13.4472 15 12.9995 14.5523 12.9995 14Z" />
</symbol>
<symbol id="people" viewBox="0 0 32 32">
    <path d="M5.294 11.224c-1.937 0-3.507-1.57-3.507-3.507s1.57-3.507 3.507-3.507c1.937 0 3.507 1.57 3.507 3.507s-1.57 3.507-3.507 3.507zM28.645 7.939c0 1.937-1.57 3.507-3.507 3.507s-3.507-1.57-3.507-3.507 1.57-3.507 3.507-3.507c1.937 0 3.507 1.57 3.507 3.507zM15.2 15.152c2.368 0 4.288-1.92 4.288-4.288s-1.92-4.288-4.288-4.288c-2.368 0-4.288 1.92-4.288 4.288s1.92 4.288 4.288 4.288zM6.673 25.442c0.286-4.629 1.96-9.036 8.473-9.036s8.273 4.408 8.577 9.036c0.061 0.928-0.702 1.683-1.632 1.683h-13.783c-0.93 0-1.693-0.755-1.635-1.683zM20.376 16.087c0.577-1.845 1.891-3.216 4.827-3.216 3.821 0 4.928 2.525 5.19 5.331 0.086 0.926-0.684 1.682-1.614 1.682h-5.221c-0.751-1.557-1.858-2.914-3.182-3.797zM5.196 12.871c2.936 0 4.251 1.372 4.827 3.216-1.325 0.883-2.431 2.24-3.182 3.797h-5.221c-0.93 0-1.7-0.756-1.614-1.682 0.261-2.806 1.368-5.331 5.19-5.331z"></path>
</symbol>
<symbol id="polls" viewBox="0 0 32 32">
    <path d="M9.6 0h-6.4c-0.884 0-1.6 0.716-1.6 1.6v28.8c0 0.884 0.716 1.6 1.6 1.6h25.6c0.884 0 1.6-0.716 1.6-1.6v-28.8c0-0.884-0.716-1.6-1.6-1.6h-6.4v1.6c0 0.884-0.716 1.6-1.6 1.6h-9.6c-0.884 0-1.6-0.716-1.6-1.6v-1.6zM27.2 11.2c0 0.884-0.716 1.6-1.6 1.6h-14.4c-0.884 0-1.6-0.716-1.6-1.6s0.716-1.6 1.6-1.6h14.4c0.884 0 1.6 0.716 1.6 1.6zM25.6 19.2c0.884 0 1.6 0.716 1.6 1.6s-0.716 1.6-1.6 1.6h-14.4c-0.884 0-1.6-0.716-1.6-1.6s0.716-1.6 1.6-1.6h14.4zM8 11.2c0 0.884-0.716 1.6-1.6 1.6s-1.6-0.716-1.6-1.6c0-0.884 0.716-1.6 1.6-1.6s1.6 0.716 1.6 1.6zM6.4 19.2c0.884 0 1.6 0.716 1.6 1.6s-0.716 1.6-1.6 1.6c-0.884 0-1.6-0.716-1.6-1.6s0.716-1.6 1.6-1.6z"></path>
</symbol>
<symbol id="polls-sidebar-icon" viewBox="0 0 14 9" xmlns="http://www.w3.org/2000/svg">
    <path fill-rule="evenodd" clip-rule="evenodd" d="M1 0.145996C1.55228 0.145996 2 0.593712 2 1.146C2 1.69828 1.55228 2.146 1 2.146C0.447715 2.146 0 1.69828 0 1.146C0 0.593712 0.447715 0.145996 1 0.145996ZM14 1.146C14 0.593712 13.5523 0.145996 13 0.145996H4C3.44772 0.145996 3 0.593712 3 1.146C3 1.69828 3.44772 2.146 4 2.146L13 2.146C13.5523 2.146 14 1.69828 14 1.146ZM14 7.146C14 6.59371 13.5523 6.146 13 6.146L4 6.146C3.44772 6.146 3 6.59371 3 7.146C3 7.69828 3.44772 8.146 4 8.146H13C13.5523 8.146 14 7.69828 14 7.146ZM2 7.146C2 6.59371 1.55228 6.146 1 6.146C0.447715 6.146 0 6.59371 0 7.146C0 7.69828 0.447715 8.146 1 8.146C1.55228 8.146 2 7.69828 2 7.146Z" fill="#F9FAFB"/>
</symbol>
<symbol id="radio_button_checked" viewBox="0 0 32 32">
    <path d="M27.636 16c0-6.427-5.21-11.636-11.636-11.636s-11.636 5.21-11.636 11.636c0 6.427 5.21 11.636 11.636 11.636s11.636-5.21 11.636-11.636zM30.545 16c0 8.033-6.512 14.545-14.545 14.545s-14.545-6.512-14.545-14.545c0-8.033 6.512-14.545 14.545-14.545s14.545 6.512 14.545 14.545zM16 23.273c-4.017 0-7.273-3.256-7.273-7.273s3.256-7.273 7.273-7.273c4.017 0 7.273 3.256 7.273 7.273s-3.256 7.273-7.273 7.273z"></path>
</symbol>
<symbol id="radio_button_unchecked" viewBox="0 0 32 32">
    <path d="M16 28.8c-7.069 0-12.8-5.731-12.8-12.8s5.731-12.8 12.8-12.8c7.069 0 12.8 5.731 12.8 12.8s-5.731 12.8-12.8 12.8zM16 32c8.836 0 16-7.164 16-16s-7.164-16-16-16c-8.837 0-16 7.163-16 16s7.163 16 16 16z"></path>
</symbol>
<symbol id="scale" viewBox="0 0 32 32">
    <path d="M2.731 0.469c-0.625-0.625-1.638-0.625-2.263 0s-0.625 1.638 0 2.263l26.069 26.069h-16.937c-0.884 0-1.6 0.716-1.6 1.6s0.716 1.6 1.6 1.6h20c0.151 0 0.298-0.014 0.441-0.040 0.519 0.119 1.086-0.024 1.49-0.428s0.547-0.971 0.428-1.49c0.027-0.143 0.040-0.291 0.040-0.441v-20c0-0.884-0.716-1.6-1.6-1.6s-1.6 0.716-1.6 1.6v16.937l-26.069-26.069z"></path>
</symbol>
<symbol id="search" viewBox="0 0 32 32" fill="currentColor">
    <path d="M20.364 12.364c0-4.418-3.582-8-8-8s-8 3.582-8 8c0 4.418 3.582 8 8 8s8-3.582 8-8zM18.98 21.038c-1.835 1.402-4.129 2.235-6.617 2.235-6.025 0-10.909-4.884-10.909-10.909s4.884-10.909 10.909-10.909c6.025 0 10.909 4.884 10.909 10.909 0 2.488-0.833 4.782-2.235 6.617l9.082 9.082c0.568 0.568 0.568 1.489 0 2.057s-1.489 0.568-2.057 0l-9.082-9.082z"></path>
</symbol>
<symbol id="shop" viewBox="0 0 32 32">
    <path d="M16 1.455c-3.011 0-5.36 2.519-5.36 5.51v3.217h-4.095c-0.803 0-1.455 0.651-1.455 1.455v17.455c0 0.803 0.651 1.455 1.455 1.455h18.909c0.803 0 1.455-0.651 1.455-1.455v-17.455c0-0.803-0.651-1.455-1.455-1.455h-4.095v-3.217c0-2.991-2.348-5.51-5.36-5.51zM18.45 13.091v1.455c0 0.803 0.651 1.455 1.455 1.455s1.455-0.651 1.455-1.455v-1.455h2.64v14.545h-16v-14.545h2.64v1.455c0 0.803 0.651 1.455 1.455 1.455s1.455-0.651 1.455-1.455v-1.455h4.901zM18.45 10.182v-3.217c0-1.489-1.148-2.601-2.45-2.601s-2.45 1.112-2.45 2.601v3.217h4.901z"></path>
</symbol>
<symbol id="slider_line" viewBox="0 0 32 32">
    <path d="M24.727 5.818c0-0.803-0.651-1.455-1.455-1.455s-1.455 0.651-1.455 1.455v20.364c0 0.803 0.651 1.455 1.455 1.455s1.455-0.651 1.455-1.455v-20.364zM6.244 25.153c-0.568 0.568-0.568 1.489 0 2.057s1.489 0.568 2.057 0l9.668-9.668c0.852-0.852 0.852-2.234 0-3.086l-9.668-9.668c-0.568-0.568-1.489-0.568-2.057 0s-0.568 1.489 0 2.057l9.153 9.153-9.153 9.153z"></path>
</symbol>
<symbol id="slider_next_fill" viewBox="0 0 32 32">
    <path d="M30.545 16c0 8.033-6.512 14.545-14.545 14.545s-14.545-6.512-14.545-14.545c0-8.033 6.512-14.545 14.545-14.545s14.545 6.512 14.545 14.545z"></path>
    <path fill="#fff" style="fill: var(--color2, #fff)" d="M12.063 22.847c-0.568-0.568-0.568-1.489 0-2.057l4.79-4.79-4.79-4.79c-0.568-0.568-0.568-1.489 0-2.057s1.489-0.568 2.057 0l5.304 5.304c0.852 0.852 0.852 2.234 0 3.086l-5.304 5.304c-0.568 0.568-1.489 0.568-2.057 0z"></path>
</symbol>
<symbol id="slider_next" viewBox="0 0 32 32">
    <path d="M27.636 16c0-6.427-5.21-11.636-11.636-11.636s-11.636 5.21-11.636 11.636c0 6.427 5.21 11.636 11.636 11.636s11.636-5.21 11.636-11.636zM30.545 16c0 8.033-6.512 14.545-14.545 14.545s-14.545-6.512-14.545-14.545c0-8.033 6.512-14.545 14.545-14.545s14.545 6.512 14.545 14.545zM12.062 20.79l4.79-4.79-4.79-4.79c-0.568-0.568-0.568-1.489 0-2.057s1.489-0.568 2.057 0l5.304 5.304c0.852 0.852 0.852 2.234 0 3.086l-5.304 5.304c-0.568 0.568-1.489 0.568-2.057 0s-0.568-1.489 0-2.057z"></path>
</symbol>
<symbol id="sort_down" viewBox="0 0 32 32">
    <path d="M17.455 2.909c0-0.803-0.651-1.455-1.455-1.455s-1.455 0.651-1.455 1.455v22.67l-7.699-7.699c-0.568-0.568-1.489-0.568-2.057 0s-0.568 1.489 0 2.057l9.668 9.668c0.852 0.852 2.234 0.852 3.086 0l9.668-9.668c0.568-0.568 0.568-1.489 0-2.057s-1.489-0.568-2.057 0l-7.699 7.699v-22.67z"></path>
</symbol>
<symbol id="uncheck" viewBox="0 0 32 32">
    <path d="M27.636 4.364v23.273h-23.273v-23.273h23.273zM4.364 1.455c-1.607 0-2.909 1.302-2.909 2.909v23.273c0 1.607 1.302 2.909 2.909 2.909h23.273c1.607 0 2.909-1.302 2.909-2.909v-23.273c0-1.607-1.302-2.909-2.909-2.909h-23.273z"></path>
</symbol>
<symbol id="union" viewBox="0 0 32 32">
    <path d="M19.429 6.857h-13.714c-0.631 0-1.143 0.512-1.143 1.143s0.512 1.143 1.143 1.143h7.999c1.693-1.272 3.75-2.085 5.988-2.253-0.087-0.021-0.178-0.033-0.272-0.033zM25.14 7.807c4.038 1.763 6.86 5.791 6.86 10.479 0 6.312-5.117 11.429-11.429 11.429-2.573 0-4.948-0.851-6.858-2.286h-7.999c-3.156 0-5.714-2.558-5.714-5.714 0-1.286 0.425-2.474 1.142-3.429-0.717-0.955-1.142-2.142-1.142-3.429s0.425-2.474 1.142-3.429c-0.717-0.955-1.142-2.142-1.142-3.429 0-3.156 2.558-5.714 5.714-5.714h13.714c3.091 0 5.609 2.455 5.711 5.521zM10.094 22.857c-0.317-0.726-0.561-1.491-0.722-2.286h-3.657c-0.631 0-1.143 0.512-1.143 1.143s0.512 1.143 1.143 1.143h4.38zM9.371 16c0.161-0.795 0.405-1.56 0.722-2.286h-4.38c-0.631 0-1.143 0.512-1.143 1.143s0.512 1.143 1.143 1.143h3.657zM20.571 25.143c3.787 0 6.857-3.070 6.857-6.857s-3.070-6.857-6.857-6.857c-3.787 0-6.857 3.070-6.857 6.857s3.070 6.857 6.857 6.857zM19.982 22.522v1.252h1.386v-1.292c0.911-0.112 1.603-0.402 2.076-0.871 0.478-0.469 0.717-1.078 0.717-1.828 0-0.665-0.203-1.208-0.609-1.627-0.406-0.424-1.076-0.801-2.009-1.132-0.46-0.156-0.819-0.292-1.078-0.408-0.259-0.121-0.442-0.228-0.549-0.321-0.103-0.098-0.154-0.221-0.154-0.368 0-0.17 0.071-0.297 0.214-0.382 0.147-0.089 0.4-0.134 0.757-0.134 0.75 0 1.592 0.21 2.525 0.629l0.797-1.908c-0.902-0.388-1.797-0.607-2.685-0.656v-0.904h-1.386v0.917c-0.946 0.098-1.656 0.355-2.129 0.77s-0.71 0.991-0.71 1.728c0 0.482 0.078 0.886 0.234 1.212 0.161 0.321 0.415 0.614 0.763 0.877 0.348 0.259 0.806 0.493 1.373 0.703 0.504 0.183 0.904 0.339 1.199 0.469 0.299 0.129 0.511 0.246 0.636 0.348 0.129 0.103 0.194 0.228 0.194 0.375 0 0.214-0.089 0.368-0.268 0.462-0.174 0.089-0.451 0.134-0.83 0.134-0.46 0-0.993-0.087-1.6-0.261-0.607-0.179-1.17-0.4-1.688-0.663v2.223c0.906 0.393 1.848 0.612 2.826 0.656z"></path>
</symbol>
<symbol id="update" viewBox="0 0 32 32">
    <path d="M17.275 3.115c-0.27-0.028-0.539-0.048-0.807-0.058-1.228-0.047-2.464 0.090-3.664 0.415-3.314 0.901-6.114 3.178-7.672 6.24-0.618 1.217-1.022 2.522-1.206 3.855-0.018 0.132-0.034 0.265-0.048 0.398-0.005 0.043-0.009 0.086-0.013 0.129-0.153 1.62 0.017 3.27 0.518 4.846 0.423 1.327 1.069 2.562 1.899 3.657 0.122 0.161 0.25 0.321 0.381 0.478 0.206 0.246 0.42 0.482 0.641 0.707 0.752 0.766 1.606 1.436 2.544 1.985 3.049 1.782 6.745 2.15 10.080 1.017 1.22-0.416 2.358-1.021 3.377-1.784 0.18-0.135 0.357-0.276 0.532-0.422l0.021-0.017c2.325-1.959 3.924-4.785 4.267-8.047 0.088-0.837 0.838-1.444 1.675-1.356s1.444 0.838 1.356 1.675c-0.458 4.355-2.707 8.087-5.938 10.542-1.362 1.036-2.848 1.809-4.395 2.324-2.003 0.669-4.177 0.93-6.414 0.695-2.18-0.229-4.204-0.907-5.99-1.933-1.761-1.011-3.29-2.36-4.51-3.95-1.109-1.444-1.921-3.030-2.442-4.681-0.598-1.89-0.835-3.928-0.637-6.023 0.020-0.212 0.044-0.424 0.073-0.635 0.239-1.753 0.77-3.399 1.538-4.894 0.9-1.756 2.159-3.364 3.765-4.712 3.057-2.565 6.826-3.725 10.52-3.548 3.884 0.186 7.687 1.849 10.495 4.91l2.113-1.22c0.508-0.293 1.143 0.073 1.143 0.66v7.918c0 0.587-0.635 0.953-1.143 0.66l-6.857-3.959c-0.508-0.293-0.508-1.026 0-1.32l2.024-1.168c-2.007-1.957-4.556-3.097-7.194-3.381l-0.032-0.003zM17.525 7.62c0-0.842-0.682-1.524-1.524-1.524s-1.524 0.682-1.524 1.524v10.667h9.143c0.842 0 1.524-0.682 1.524-1.524s-0.682-1.524-1.524-1.524h-6.095v-7.619z"></path>
</symbol>
<symbol id="verification_2" viewBox="0 0 32 32">
    <path d="M16 3.422l-11.2 4.231v1.382c0 8.008 4.292 15.376 11.2 19.337 6.908-3.961 11.2-11.329 11.2-19.337v-1.382l-11.2-4.231zM14.869 0.428c0.729-0.275 1.533-0.275 2.262 0l12.492 4.719c0.468 0.177 0.777 0.625 0.777 1.125v2.763c0 9.494-5.276 18.202-13.692 22.597-0.444 0.232-0.972 0.232-1.416 0-8.416-4.395-13.692-13.103-13.692-22.597v-2.763c0-0.5 0.31-0.948 0.777-1.125l12.492-4.719zM10.197 17.019c-0.689-0.554-0.798-1.561-0.244-2.25s1.561-0.798 2.25-0.244l3.061 2.462 5.927-6.835c0.579-0.668 1.589-0.739 2.257-0.161s0.74 1.589 0.161 2.257l-7.948 9.165-5.464-4.395z"></path>
</symbol>
<symbol id="verification_fill" viewBox="0 0 32 32">
    <path d="M16 1.455l11.713 0c0.761 0 1.378 0.617 1.378 1.378v6.834c0 8.631-4.796 16.547-12.447 20.543-0.403 0.21-0.884 0.21-1.287 0-7.651-3.995-12.447-11.911-12.447-20.543v-6.834c0-0.761 0.617-1.378 1.378-1.378l11.713-0z"></path>
    <path fill="#fff" style="fill: var(--color2, #fff)" d="M15.692 19.466l-4.967-3.995c-0.626-0.504-0.725-1.419-0.222-2.045s1.419-0.725 2.045-0.222l2.783 2.238 5.389-6.214c0.526-0.607 1.445-0.672 2.052-0.146s0.672 1.445 0.146 2.052l-7.225 8.332z"></path>
</symbol>
<symbol id="verification" viewBox="0 0 32 32">
    <path d="M5.818 4.364v5.303c0 7.28 3.902 13.978 10.182 17.579 6.28-3.601 10.182-10.299 10.182-17.579v-5.303h-20.364zM4.287 1.455h23.425c0.761 0 1.378 0.617 1.378 1.378v6.834c0 8.631-4.796 16.547-12.447 20.543-0.403 0.211-0.884 0.211-1.287 0-7.651-3.995-12.447-11.911-12.447-20.543v-6.834c0-0.761 0.617-1.378 1.378-1.378zM10.725 15.471c-0.626-0.503-0.725-1.419-0.222-2.045s1.419-0.725 2.045-0.222l2.783 2.238 5.389-6.214c0.526-0.607 1.445-0.672 2.052-0.146s0.672 1.445 0.146 2.052l-7.225 8.332-4.967-3.995z"></path>
</symbol>
<symbol id="visibility_off" viewBox="0 0 32 32">
    <path d="M6.276 5.724c-0.521-0.521-1.365-0.521-1.886 0s-0.521 1.365 0 1.886l2.278 2.278c-2.32 1.638-4.002 3.775-4.002 6.112 0 5.155 8.179 9.333 13.333 9.333 1.529 0 3.325-0.368 5.094-1.020l1.963 1.963c0.521 0.521 1.365 0.521 1.886 0s0.521-1.365 0-1.886l-18.667-18.667zM18.317 21.536l-2.205-2.205c-0.037 0.001-0.075 0.002-0.113 0.002-1.841 0-3.333-1.492-3.333-3.333 0-0.038 0.001-0.075 0.002-0.113l-2.205-2.205c-0.299 0.713-0.464 1.496-0.464 2.317 0 3.314 2.686 6 6 6 0.821 0 1.604-0.165 2.317-0.464zM15.887 12.669l3.444 3.444c0.001-0.037 0.002-0.075 0.002-0.113 0-1.841-1.492-3.333-3.333-3.333-0.038 0-0.075 0.001-0.113 0.002zM22 16c0 0.821-0.165 1.604-0.464 2.317l3.795 3.795c2.319-1.638 4.002-3.775 4.002-6.113 0-5.155-8.179-9.333-13.333-9.333-1.529 0-3.325 0.368-5.094 1.020l2.777 2.777c0.713-0.299 1.496-0.464 2.317-0.464 3.314 0 6 2.686 6 6z"></path>
</symbol>
<symbol id="wait" viewBox="0 0 32 32">
    <path d="M27.636 16c0-6.427-5.21-11.636-11.636-11.636s-11.636 5.21-11.636 11.636c0 6.427 5.21 11.636 11.636 11.636s11.636-5.21 11.636-11.636zM30.545 16c0 8.033-6.512 14.545-14.545 14.545s-14.545-6.512-14.545-14.545c0-8.033 6.512-14.545 14.545-14.545s14.545 6.512 14.545 14.545zM17.455 8.727v7.273h5.818c0.803 0 1.455 0.651 1.455 1.455s-0.651 1.455-1.455 1.455h-8.727v-10.182c0-0.803 0.651-1.455 1.455-1.455s1.455 0.651 1.455 1.455z"></path>
</symbol>
<symbol id="widget_aud" viewBox="0 0 32 32">
    <path d="M17.777 31.902c7.416-0.82 13.305-6.708 14.124-14.125h-4.483c-0.766 4.958-4.683 8.876-9.642 9.642v4.483zM17.777 23.497c2.827-0.668 5.052-2.893 5.72-5.72h-5.72v5.72zM27.419 14.222c-0.766-4.958-4.683-8.876-9.642-9.642v-4.483c7.416 0.82 13.305 6.708 14.124 14.125h-4.483zM14.222 4.58v-4.483c-7.416 0.82-13.305 6.708-14.125 14.125h4.483c0.766-4.958 4.683-8.876 9.642-9.642zM8.502 14.222c0.668-2.827 2.893-5.052 5.72-5.72v5.72h-5.72zM8.502 17.777h5.72v5.72c-2.827-0.668-5.052-2.893-5.72-5.72zM4.58 17.777c0.766 4.958 4.683 8.876 9.642 9.642v4.483c-7.416-0.82-13.305-6.708-14.125-14.124h4.483zM17.777 8.502c2.827 0.668 5.052 2.893 5.72 5.72h-5.72v-5.72z"></path>
</symbol>
<symbol id="widget_check" viewBox="0 0 32 32">
    <path d="M26.105 6.484v14.737h-20.211v-14.737h20.211zM5.895 3.115c-1.86 0-3.368 1.508-3.368 3.368v14.737c0 1.86 1.508 3.368 3.368 3.368h20.211c1.86 0 3.368-1.508 3.368-3.368v-14.737c0-1.86-1.508-3.368-3.368-3.368h-20.211z"></path>
    <path d="M17.373 22.185c0.538 0.759 0.358 1.81-0.401 2.348l-8.084 5.726c-0.759 0.538-1.81 0.358-2.348-0.401s-0.358-1.81 0.401-2.348l8.084-5.726c0.759-0.538 1.81-0.358 2.348 0.401z"></path>
    <path d="M14.627 22.185c-0.538 0.759-0.358 1.81 0.401 2.348l8.084 5.726c0.759 0.538 1.81 0.358 2.348-0.401s0.358-1.81-0.401-2.348l-8.084-5.726c-0.759-0.538-1.81-0.358-2.348 0.401z"></path>
    <path d="M16 0c0.93 0 1.684 0.754 1.684 1.684v2.863c0 0.93-0.754 1.684-1.684 1.684s-1.684-0.754-1.684-1.684v-2.863c0-0.93 0.754-1.684 1.684-1.684z"></path>
    <path d="M10.612 14.316c0.93 0 1.684 0.754 1.684 1.684v2.863c0 0.93-0.754 1.684-1.684 1.684s-1.684-0.754-1.684-1.684v-2.863c0-0.93 0.754-1.684 1.684-1.684z"></path>
    <path d="M16 11.454c0.93 0 1.684 0.754 1.684 1.684v5.726c0 0.93-0.754 1.684-1.684 1.684s-1.684-0.754-1.684-1.684v-5.726c0-0.93 0.754-1.684 1.684-1.684z"></path>
    <path d="M21.053 8.421c0.93 0 1.684 0.754 1.684 1.684v8.421c0 0.93-0.754 1.684-1.684 1.684s-1.684-0.754-1.684-1.684v-8.421c0-0.93 0.754-1.684 1.684-1.684z"></path>
</symbol>
<symbol id="widget_filter_atr" viewBox="0 0 32 32">
    <path d="M28.444 3.556c0-0.982-0.796-1.778-1.778-1.778s-1.778 0.796-1.778 1.778v7.111c0 0.982 0.796 1.778 1.778 1.778s1.778-0.796 1.778-1.778v-1.778h1.778c0.982 0 1.778-0.796 1.778-1.778s-0.796-1.778-1.778-1.778h-1.778v-1.778zM0 7.111c0-0.982 0.796-1.778 1.778-1.778h17.778c0.982 0 1.778 0.796 1.778 1.778s-0.796 1.778-1.778 1.778h-17.778c-0.982 0-1.778-0.796-1.778-1.778zM3.556 28.444c0 0.982 0.796 1.778 1.778 1.778s1.778-0.796 1.778-1.778v-7.111c0-0.982-0.796-1.778-1.778-1.778s-1.778 0.796-1.778 1.778v1.778h-1.778c-0.982 0-1.778 0.796-1.778 1.778s0.796 1.778 1.778 1.778h1.778v1.778zM32 24.889c0 0.982-0.796 1.778-1.778 1.778h-17.778c-0.982 0-1.778-0.796-1.778-1.778s0.796-1.778 1.778-1.778h17.778c0.982 0 1.778 0.796 1.778 1.778zM12.444 19.556c0 0.982 0.796 1.778 1.778 1.778s1.778-0.796 1.778-1.778v-7.111c0-0.982-0.796-1.778-1.778-1.778s-1.778 0.796-1.778 1.778v1.778h-10.667c-0.982 0-1.778 0.796-1.778 1.778s0.796 1.778 1.778 1.778h10.667v1.778zM19.556 16c0-0.982 0.796-1.778 1.778-1.778h8.889c0.982 0 1.778 0.796 1.778 1.778s-0.796 1.778-1.778 1.778h-8.889c-0.982 0-1.778-0.796-1.778-1.778z"></path>
</symbol>
<symbol id="widget_forecast" viewBox="0 0 32 32">
    <path d="M0 1.778c0-0.982 0.796-1.778 1.778-1.778h28.444c0.982 0 1.778 0.796 1.778 1.778v28.444c0 0.982-0.796 1.778-1.778 1.778h-28.444c-0.982 0-1.778-0.796-1.778-1.778v-28.444zM24.889 5.333v21.333c0 0.982 0.796 1.778 1.778 1.778s1.778-0.796 1.778-1.778v-21.333c0-0.982-0.796-1.778-1.778-1.778s-1.778 0.796-1.778 1.778zM19.556 7.111c-0.982 0-1.778 0.796-1.778 1.778v17.778c0 0.982 0.796 1.778 1.778 1.778s1.778-0.796 1.778-1.778v-17.778c0-0.982-0.796-1.778-1.778-1.778zM10.667 12.444v14.222c0 0.982 0.796 1.778 1.778 1.778s1.778-0.796 1.778-1.778v-14.222c0-0.982-0.796-1.778-1.778-1.778s-1.778 0.796-1.778 1.778zM5.333 14.222c-0.982 0-1.778 0.796-1.778 1.778v10.667c0 0.982 0.796 1.778 1.778 1.778s1.778-0.796 1.778-1.778v-10.667c0-0.982-0.796-1.778-1.778-1.778z"></path>
</symbol>
<symbol id="telegram" viewBox="0 0 20 20">
    <path d="M10 20C15.5228 20 20 15.5228 20 10C20 4.47715 15.5228 0 10 0C4.47715 0 0 4.47715 0 10C0 15.5228 4.47715 20 10 20Z"/>
    <path d="M4.57263 9.78253L14.2143 6.06503C14.6618 5.90336 15.0526 6.1742 14.9076 6.85086L14.9085 6.85003L13.2668 14.5842C13.1451 15.1325 12.8193 15.2659 12.3635 15.0075L9.86347 13.165L8.65763 14.3267C8.5243 14.46 8.4118 14.5725 8.15347 14.5725L8.33097 12.0284L12.9643 7.84253C13.166 7.66503 12.9193 7.56503 12.6535 7.7417L6.92763 11.3467L4.4593 10.5767C3.92347 10.4067 3.9118 10.0409 4.57263 9.78253Z" fill="white"/>
</symbol>
<symbol id="phone" viewBox="0 0 16 17">
    <path d="M15.5804 11.7671L13.3429 9.52955C12.5438 8.73042 11.1853 9.05011 10.8656 10.0889C10.6259 10.8082 9.82675 11.2077 9.10754 11.0479C7.50929 10.6483 5.35166 8.5706 4.95209 6.89244C4.71236 6.1732 5.19183 5.37407 5.91104 5.13437C6.9499 4.81472 7.26955 3.45621 6.47043 2.65709L4.23288 0.41954C3.59358 -0.139847 2.63464 -0.139847 2.07525 0.41954L0.556915 1.93787C-0.96142 3.53612 0.71674 7.77148 4.47262 11.5274C8.2285 15.2832 12.4639 17.0413 14.0621 15.4431L15.5804 13.9247C16.1399 13.2854 16.1399 12.3265 15.5804 11.7671Z"/>
</symbol>
<symbol id="skype" viewBox="0 0 20 20">
    <path d="M19.4252 12.1231C19.569 11.4714 19.6452 10.7977 19.6452 10.1047C19.6452 4.91111 15.3758 0.69988 10.1079 0.69988C9.55237 0.69988 9.00742 0.747381 8.4775 0.837372C7.62523 0.30745 6.6166 0 5.53554 0C2.47978 0 0.00390625 2.4421 0.00390625 5.45537C0.00390625 6.46147 0.281978 7.4038 0.76378 8.21433C0.636929 8.82484 0.570689 9.45724 0.570689 10.1047C0.570689 15.3001 4.84006 19.3545 10.1073 19.3545C10.7041 19.3545 11.2878 19.3001 11.8533 19.197C12.6326 19.6094 13.5225 20 14.4686 20C17.5237 20 19.9996 17.5585 19.9996 14.5452C19.9996 13.676 19.7927 12.853 19.4252 12.1231Z"/>
    <path d="M14.4586 13.942C14.0905 14.465 13.5518 14.8762 12.8426 15.1718C12.1333 15.4698 11.2934 15.6173 10.3217 15.6173C9.15632 15.6173 8.19519 15.4148 7.43717 15.0093C6.901 14.7181 6.46422 14.3281 6.12801 13.8419C5.79304 13.3557 5.625 12.8821 5.625 12.4215C5.625 12.1553 5.72563 11.9266 5.92682 11.7372C6.12801 11.5454 6.38487 11.4511 6.69548 11.4511C6.94795 11.4511 7.16225 11.5242 7.33599 11.6735C7.51096 11.8217 7.66032 12.041 7.78278 12.3328C7.93338 12.6796 8.09524 12.9689 8.27083 13.2008C8.44457 13.4326 8.69079 13.625 9.00695 13.7756C9.32443 13.925 9.74123 14.0012 10.2561 14.0012C10.9648 14.0012 11.5409 13.85 11.9846 13.5456C12.427 13.2426 12.6495 12.862 12.6495 12.4077C12.6495 12.0477 12.5295 11.7534 12.2908 11.5303C12.0514 11.3053 11.7427 11.1334 11.364 11.0154C10.9859 10.896 10.4798 10.7698 9.84488 10.6367C8.99686 10.4548 8.28634 10.2399 7.71524 9.99617C7.14344 9.75057 6.68855 9.41751 6.35357 8.99571C6.01736 8.57204 5.84987 8.04713 5.84987 7.42036C5.84987 6.82172 6.0267 6.29118 6.38165 5.82689C6.73598 5.36197 7.24778 5.00516 7.92014 4.75517C8.59125 4.50524 9.38119 4.38086 10.2879 4.38086C11.0128 4.38086 11.6402 4.46399 12.1695 4.62832C12.6988 4.79457 13.1368 5.0145 13.4855 5.28886C13.8348 5.56323 14.0904 5.85064 14.251 6.15246C14.4122 6.45243 14.4928 6.74862 14.4928 7.03356C14.4928 7.29536 14.3928 7.53286 14.1916 7.74222C13.9904 7.9522 13.7392 8.05777 13.4386 8.05777C13.1642 8.05777 12.9562 7.994 12.8137 7.86846C12.6712 7.74222 12.5169 7.53602 12.3512 7.24916C12.1356 6.83923 11.8788 6.51928 11.5776 6.28995C11.2764 6.06 10.794 5.94502 10.1278 5.94502C9.51107 5.94502 9.01238 6.06878 8.63368 6.31933C8.25497 6.56802 8.06504 6.86922 8.06504 7.21978C8.06504 7.43601 8.13066 7.62471 8.25875 7.78279C8.38684 7.94211 8.56435 8.07651 8.79114 8.18964C9.01547 8.30338 9.24418 8.39213 9.47475 8.45768C9.70532 8.52207 10.0872 8.61515 10.6196 8.73891C11.2844 8.88203 11.8875 9.04074 12.4274 9.21323C12.9667 9.38635 13.4266 9.59695 13.8054 9.84248C14.1834 10.0899 14.4796 10.4036 14.6915 10.7823C14.9033 11.1598 15.0102 11.6228 15.0102 12.1715C15.0104 12.8278 14.8254 13.4183 14.4586 13.942Z" fill="white"/>
</symbol>
<symbol id="audience_report" viewBox="0 0 16 19">
    <path fill-rule="evenodd" clip-rule="evenodd" d="M14 3.84961H2V12.5996H14V3.84961ZM2 1.84961C0.895431 1.84961 0 2.74504 0 3.84961V12.5996C0 13.7042 0.895431 14.5996 2 14.5996H14C15.1046 14.5996 16 13.7042 16 12.5996V3.84961C16 2.74504 15.1046 1.84961 14 1.84961H2Z" />
    <path fill-rule="evenodd" clip-rule="evenodd" d="M8.81532 13.1721C9.13455 13.6227 9.02799 14.2469 8.57732 14.5661L3.77732 17.9661C3.32664 18.2853 2.70251 18.1788 2.38328 17.7281C2.06405 17.2774 2.1706 16.6533 2.62128 16.3341L7.42128 12.9341C7.87196 12.6148 8.49609 12.7214 8.81532 13.1721Z" />
    <path fill-rule="evenodd" clip-rule="evenodd" d="M7.18468 13.1721C6.86545 13.6227 6.97201 14.2469 7.42268 14.5661L12.2227 17.9661C12.6734 18.2853 13.2975 18.1788 13.6167 17.7281C13.936 17.2774 13.8294 16.6533 13.3787 16.3341L8.57872 12.9341C8.12804 12.6148 7.50391 12.7214 7.18468 13.1721Z" />
    <path fill-rule="evenodd" clip-rule="evenodd" d="M8 0C8.55228 0 9 0.447715 9 1V2.7C9 3.25228 8.55228 3.7 8 3.7C7.44772 3.7 7 3.25228 7 2.7V1C7 0.447715 7.44772 0 8 0Z" />
    <path fill-rule="evenodd" clip-rule="evenodd" d="M4.80078 8.5C5.35307 8.5 5.80078 8.94772 5.80078 9.5V11.2C5.80078 11.7523 5.35307 12.2 4.80078 12.2C4.2485 12.2 3.80078 11.7523 3.80078 11.2V9.5C3.80078 8.94772 4.2485 8.5 4.80078 8.5Z" />
    <path fill-rule="evenodd" clip-rule="evenodd" d="M8 6.80078C8.55228 6.80078 9 7.2485 9 7.80078L9 11.2008C9 11.7531 8.55228 12.2008 8 12.2008C7.44772 12.2008 7 11.7531 7 11.2008L7 7.80078C7 7.2485 7.44772 6.80078 8 6.80078Z" />
    <path fill-rule="evenodd" clip-rule="evenodd" d="M11 5C11.5523 5 12 5.44772 12 6L12 11C12 11.5523 11.5523 12 11 12C10.4477 12 10 11.5523 10 11L10 6C10 5.44772 10.4477 5 11 5Z" />
</symbol>
<symbol id="attribute_accuracy" viewBox="0 0 18 18">
    <path fill-rule="evenodd" clip-rule="evenodd" d="M9.99976 17.9448C14.1714 17.4837 17.4837 14.1714 17.9448 9.99976H15.4233C14.9926 12.7889 12.7889 14.9926 9.99976 15.4233V17.9448ZM9.99976 13.2171C11.5899 12.8415 12.8415 11.5899 13.2171 9.99976H9.99976V13.2171ZM15.4233 7.99976C14.9926 5.21063 12.7889 3.00687 9.99976 2.57619V0.0546875C14.1714 0.515836 17.4837 3.82814 17.9448 7.99976L15.4233 7.99976ZM7.99976 2.57619V0.0546875C3.82814 0.515836 0.515838 3.82814 0.0546875 7.99976L2.5762 7.99976C3.00687 5.21063 5.21063 3.00686 7.99976 2.57619ZM4.78237 7.99976C5.15798 6.40963 6.40963 5.15798 7.99976 4.78237V7.99976L4.78237 7.99976ZM4.78238 9.99976H7.99976V13.2171C6.40964 12.8415 5.158 11.5899 4.78238 9.99976ZM2.57621 9.99976C3.00688 12.7889 5.21064 14.9926 7.99976 15.4233V17.9448C3.82814 17.4837 0.515836 14.1714 0.0546875 9.99976H2.57621ZM9.99976 4.78237C11.5899 5.15798 12.8415 6.40963 13.2171 7.99976L9.99976 7.99976V4.78237Z" />
</symbol>
<symbol id="forecast_adv" viewBox="0 0 18 18">
    <path fill-rule="evenodd" clip-rule="evenodd" d="M0 1C0 0.447716 0.447715 0 1 0H17C17.5523 0 18 0.447715 18 1V17C18 17.5523 17.5523 18 17 18H1C0.447716 18 0 17.5523 0 17V1ZM14 3C14 2.44772 14.4477 2 15 2C15.5523 2 16 2.44772 16 3V15C16 15.5523 15.5523 16 15 16C14.4477 16 14 15.5523 14 15V3ZM11 4C10.4477 4 10 4.44771 10 5V15C10 15.5523 10.4477 16 11 16C11.5523 16 12 15.5523 12 15V5C12 4.44772 11.5523 4 11 4ZM6 7C6 6.44772 6.44772 6 7 6C7.55228 6 8 6.44772 8 7V15C8 15.5523 7.55228 16 7 16C6.44772 16 6 15.5523 6 15V7ZM3 8C2.44772 8 2 8.44771 2 9V15C2 15.5523 2.44772 16 3 16C3.55228 16 4 15.5523 4 15V9C4 8.44771 3.55228 8 3 8Z" />
</symbol>
<symbol id="data_providers" viewBox="0 0 16 18">
    <path fill-rule="evenodd" clip-rule="evenodd" d="M0 1C0 0.447716 0.447715 0 1 0H15C15.5523 0 16 0.447715 16 1V17C16 17.5523 15.5523 18 15 18H1C0.447715 18 0 17.5523 0 17V1ZM2 7C2 6.44772 2.44772 6 3 6H13C13.5523 6 14 6.44772 14 7C14 7.55228 13.5523 8 13 8H3C2.44772 8 2 7.55228 2 7ZM3 2C2.44772 2 2 2.44772 2 3C2 3.55228 2.44772 4 3 4H13C13.5523 4 14 3.55228 14 3C14 2.44772 13.5523 2 13 2H3ZM2 11C2 10.4477 2.44772 10 3 10H13C13.5523 10 14 10.4477 14 11C14 11.5523 13.5523 12 13 12H3C2.44772 12 2 11.5523 2 11ZM3 14C2.44772 14 2 14.4477 2 15C2 15.5523 2.44772 16 3 16H13C13.5523 16 14 15.5523 14 15C14 14.4477 13.5523 14 13 14H3Z" />
</symbol>
<symbol id="audience_counter" viewBox="0 0 19 14">
    <path fill-rule="evenodd" clip-rule="evenodd" d="M3.14326 4.16427C1.99333 4.16427 1.06113 3.23206 1.06113 2.08213C1.06113 0.932203 1.99333 0 3.14326 0C4.29319 0 5.2254 0.932203 5.2254 2.08213C5.2254 3.23206 4.29319 4.16427 3.14326 4.16427ZM17.0079 2.21402C17.0079 3.36395 16.0757 4.29615 14.9257 4.29615C13.7758 4.29615 12.8436 3.36395 12.8436 2.21402C12.8436 1.06409 13.7758 0.131886 14.9257 0.131886C16.0757 0.131886 17.0079 1.06409 17.0079 2.21402ZM9.02479 6.49658C10.4308 6.49658 11.5707 5.35676 11.5707 3.95071C11.5707 2.54465 10.4308 1.40483 9.02479 1.40483C7.61874 1.40483 6.47891 2.54465 6.47891 3.95071C6.47891 5.35676 7.61874 6.49658 9.02479 6.49658ZM3.96202 12.606C4.13165 9.85774 5.12585 7.24078 8.993 7.24078C12.8602 7.24078 13.905 9.85779 14.0855 12.6061C14.1217 13.1572 13.6688 13.6055 13.1166 13.6055H4.93303C4.38075 13.6055 3.928 13.1572 3.96202 12.606ZM12.098 7.05164C12.4404 5.95632 13.2207 5.14192 14.9643 5.14192C17.2332 5.14192 17.8904 6.64127 18.0457 8.3073C18.0969 8.8572 17.6398 9.30618 17.0875 9.30618H13.9875C13.5417 8.38143 12.8845 7.5759 12.098 7.05164ZM3.08533 5.14192C4.82886 5.14192 5.60919 5.95632 5.95156 7.05164C5.16506 7.5759 4.50787 8.38143 4.06214 9.30618H0.962126C0.409841 9.30618 -0.0473154 8.8572 0.0039284 8.3073C0.159181 6.64127 0.816359 5.14192 3.08533 5.14192Z" />
</symbol>
<symbol id="visibility" viewBox="0 0 20 14">
    <path fill-rule="evenodd" clip-rule="evenodd" d="M10 14C13.866 14 20 10.866 20 7C20 3.13401 13.866 0 10 0C6.13401 0 0 3.13401 0 7C0 10.866 6.13401 14 10 14ZM12.5 7C12.5 8.38071 11.3807 9.5 10 9.5C8.61929 9.5 7.5 8.38071 7.5 7C7.5 5.61929 8.61929 4.5 10 4.5C11.3807 4.5 12.5 5.61929 12.5 7ZM14.5 7C14.5 9.48528 12.4853 11.5 10 11.5C7.51472 11.5 5.5 9.48528 5.5 7C5.5 4.51472 7.51472 2.5 10 2.5C12.4853 2.5 14.5 4.51472 14.5 7Z" />
</symbol>
<symbol id="products" viewBox="0 0 16 20">
    <path fill-rule="evenodd" clip-rule="evenodd" d="M7.99999 0C5.92974 0 4.31531 1.73188 4.31531 3.78801V6H1.5C0.947715 6 0.5 6.44772 0.5 7V19C0.5 19.5523 0.947715 20 1.5 20H14.5C15.0523 20 15.5 19.5523 15.5 19V7C15.5 6.44772 15.0523 6 14.5 6H11.6847V3.78801C11.6847 1.73188 10.0702 0 7.99999 0ZM9.68467 8V9C9.68467 9.55229 10.1324 10 10.6847 10C11.237 10 11.6847 9.55229 11.6847 9V8H13.5V18H2.5V8H4.31531V9C4.31531 9.55229 4.76302 10 5.31531 10C5.86759 10 6.31531 9.55229 6.31531 9V8H9.68467ZM9.68467 6V3.78801C9.68467 2.76459 8.89515 2 7.99999 2C7.10483 2 6.31531 2.76459 6.31531 3.78801V6H9.68467Z" />
</symbol>
<symbol id="refresh" viewBox="0 0 20 21">
    <path fill-rule="evenodd" clip-rule="evenodd" d="M10.837 2.04429C10.6596 2.02565 10.483 2.01295 10.3073 2.00604C9.5017 1.97492 8.69033 2.0648 7.90268 2.27828C5.72768 2.86978 3.89033 4.36364 2.86786 6.37341C2.46216 7.17221 2.1972 8.0283 2.07637 8.90294C2.06443 8.98955 2.05384 9.07666 2.04463 9.16424C2.04167 9.19244 2.03886 9.22061 2.03619 9.24877C1.93592 10.312 2.04726 11.395 2.3762 12.429C2.65403 13.2997 3.07806 14.1104 3.62224 14.829C3.70262 14.9349 3.78602 15.0395 3.87247 15.1425C4.00787 15.3039 4.14828 15.4586 4.29329 15.6065C4.78669 16.1094 5.34735 16.5486 5.96284 16.9089C7.96398 18.0784 10.389 18.3201 12.5779 17.576C13.3783 17.3032 14.1256 16.9061 14.7943 16.4054C14.9124 16.3169 15.0287 16.2246 15.1431 16.1286L15.1568 16.1173C16.6823 14.8317 17.732 12.9774 17.957 10.8367C18.0147 10.2874 18.5068 9.88897 19.056 9.9467C19.6053 10.0044 20.0038 10.4965 19.946 11.0458C19.6457 13.9035 18.1696 16.353 16.0489 17.9642C15.1551 18.6441 14.1797 19.1513 13.1645 19.4894C11.8503 19.9284 10.4234 20.1 8.95552 19.9457C7.52496 19.7953 6.1967 19.3503 5.02468 18.6774C3.86903 18.0138 2.8653 17.1285 2.06521 16.0854C1.33732 15.1377 0.804688 14.0969 0.462898 13.0136C0.0703034 11.7731 -0.0850136 10.4357 0.045037 9.06088C0.0581716 8.92161 0.0742099 8.78261 0.0931447 8.64398C0.249998 7.49346 0.598326 6.41314 1.10234 5.43199C1.69315 4.27993 2.51886 3.22427 3.57295 2.33979C5.5791 0.656428 8.05222 -0.10463 10.4769 0.0115216C13.0259 0.133631 15.5213 1.22525 17.3643 3.23397L18.7508 2.43351C19.0841 2.24106 19.5008 2.48162 19.5008 2.86652V8.06267C19.5008 8.44757 19.0841 8.68814 18.7508 8.49569L14.2508 5.89761C13.9175 5.70516 13.9175 5.22403 14.2508 5.03158L15.5789 4.26481C14.2618 2.98082 12.5891 2.23264 10.8581 2.04629L10.837 2.04429ZM11.0008 5.00049C11.0008 4.44821 10.5531 4.00049 10.0008 4.00049C9.44849 4.00049 9.00078 4.44821 9.00078 5.00049V12.0005H15.0008C15.5531 12.0005 16.0008 11.5528 16.0008 11.0005C16.0008 10.4482 15.5531 10.0005 15.0008 10.0005H11.0008V5.00049Z" />
</symbol>
<symbol id="report" viewBox="0 0 20 18">
    <path d="M7 14H5V7H7V14ZM11 14H9V4H11V14ZM15 14H13V10H15V14ZM17.5 16.1H2.5V2H17.5V16.1ZM17.5 0H2.5C1.4 0 0.5 0.9 0.5 2V16C0.5 17.1 1.4 18 2.5 18H17.5C18.6 18 19.5 17.1 19.5 16V2C19.5 0.9 18.6 0 17.5 0Z" />
</symbol>
<symbol id="swap" viewBox="0 0 18 14">
    <path d="M3.99 6L0 10L3.99 14V11H11V9H3.99V6ZM18 4L14.01 0V3H7V5H14.01V8L18 4Z" />
</symbol>
<symbol id="upload" viewBox="0 0 12 20">
    <path fill-rule="evenodd" clip-rule="evenodd" d="M4.5 2C3.11929 2 2 3.11929 2 4.5V14.8462C2 16.588 3.41203 18 5.15385 18H6.45455C8.41265 18 10 16.4126 10 14.4545V3C10 2.44772 10.4477 2 11 2C11.5523 2 12 2.44772 12 3V14.4545C12 17.5172 9.51722 20 6.45455 20H5.15385C2.30746 20 0 17.6925 0 14.8462V4.5C0 2.01472 2.01472 0 4.5 0C6.98528 0 9 2.01472 9 4.5V13C9 14.6569 7.65685 16 6 16C4.34315 16 3 14.6569 3 13V6C3 5.44772 3.44772 5 4 5C4.55228 5 5 5.44772 5 6V13C5 13.5523 5.44772 14 6 14C6.55228 14 7 13.5523 7 13V4.5C7 3.11929 5.88071 2 4.5 2Z" />
</symbol>
<symbol id="upload_up" viewBox="0 0 21 20">
    <path d="M15.8939 10V15.8333H4.22721V10H2.56055V15.8333C2.56055 16.75 3.31055 17.5 4.22721 17.5H15.8939C16.8105 17.5 17.5605 16.75 17.5605 15.8333V10H15.8939Z" />
    <path d="M10.8926 4.69167L13.0509 6.84167L14.2259 5.66667L10.0592 1.5L5.89258 5.66667L7.06758 6.84167L9.22591 4.69167V12.75H10.8926V4.69167Z" />
</symbol>
<symbol id="star" viewBox="0 0 62 58" style="max-height: 64px; max-width: 64px;">
    <path fill="none" d="M31 44.237L12.19 57.889l7.172-22.108L.566 22.111l23.241-.01L31 0l7.193 22.1 23.24.011-18.795 13.67 7.171 22.108z" fill-rule="evenodd" />
    <path fill="#ccc" d="M31 41.148l14.06 10.205-5.36-16.526 14.051-10.22-17.374-.008L31 8.08l-5.377 16.52-17.374.009L22.3 34.827l-5.36 16.526L31 41.148zm0 3.089L12.19 57.889l7.172-22.108L.566 22.111l23.241-.01L31 0l7.193 22.1 23.24.011-18.795 13.67 7.171 22.108L31 44.237z" fill-rule="nonzero" />
</symbol>
<symbol id="trash" style="max-height: 12px; max-width: 64px;" viewBox="0 0 12 15" fill="none" xmlns="http://www.w3.org/2000/svg">
    <path d="M0.857143 13.3333C0.857143 14.25 1.62857 15 2.57143 15H9.42857C10.3714 15 11.1429 14.25 11.1429 13.3333V3.33333H0.857143V13.3333ZM12 1.83333C12 1.28105 11.5523 0.833333 11 0.833333H9.40599C9.14565 0.833333 8.89557 0.731805 8.70891 0.550328L8.43395 0.283005C8.24729 0.101528 7.99721 0 7.73687 0H4.26313C4.00279 0 3.75271 0.101528 3.56605 0.283005L3.29109 0.550328C3.10443 0.731805 2.85435 0.833333 2.59401 0.833333H1C0.447715 0.833333 0 1.28105 0 1.83333V2.5H12V1.83333Z" fill="#CFD1D5"/>
</symbol>

<symbol id="eye" viewBox="0 0 18 12" fill="currentColor">
    <path fill-rule="evenodd" clip-rule="evenodd" d="M9 12C12.4794 12 18 9.31371 18 6C18 2.68629 12.4794 0 9 0C5.52061 0 0 2.68629 0 6C0 9.31371 5.52061 12 9 12ZM11 6C11 7.10457 10.1046 8 9 8C7.89543 8 7 7.10457 7 6C7 4.89543 7.89543 4 9 4C10.1046 4 11 4.89543 11 6ZM13 6C13 8.20914 11.2091 10 9 10C6.79086 10 5 8.20914 5 6C5 3.79086 6.79086 2 9 2C11.2091 2 13 3.79086 13 6Z" />
</symbol>
<symbol id="clip" viewBox="0 0 19 18" fill="none">
    <path d="M18.101 6.55556C17.7926 6.26344 17.2939 6.26474 16.9871 6.55841L7.51854 15.6231C6.29011 16.7928 4.29496 16.7928 3.06425 15.6216C1.83445 14.4499 1.83445 12.5502 3.06439 11.379L12.8132 2.04741C13.5802 1.31716 14.827 1.31716 15.5962 2.04899C16.3651 2.78117 16.3651 3.96832 15.596 4.70071L7.52002 12.3906C7.5195 12.3911 7.51906 12.3917 7.51854 12.3922C7.21087 12.6835 6.71364 12.6831 6.4066 12.3908C6.09904 12.0979 6.09904 11.6232 6.4066 11.3304L10.3048 7.61773C10.6124 7.3248 10.6123 6.8499 10.3047 6.55704C9.99707 6.26418 9.49833 6.26422 9.19077 6.55715L5.29259 10.2697C4.36988 11.1483 4.36988 12.5728 5.29267 13.4514C6.21542 14.3301 7.71135 14.3301 8.63414 13.4514C8.63521 13.4504 8.63605 13.4493 8.63709 13.4483L16.7099 5.76133C18.0943 4.44315 18.0943 2.30623 16.7099 0.988054C15.3254 -0.329351 13.0813 -0.329351 11.6978 0.988054L1.94898 10.3197C0.105326 12.0753 0.105326 14.9246 1.95031 16.6822C3.79652 18.4393 6.78889 18.4393 8.63399 16.6824L18.104 7.61625C18.4108 7.32255 18.4094 6.84768 18.101 6.55556Z" fill="#CFD1D5"/>
</symbol>
<symbol id="toggle" viewBox="0 0 20 20" fill="none" xmlns="http://www.w3.org/2000/svg">
    <path fill-rule="evenodd" clip-rule="evenodd" d="M14.2928 9.70711C13.9023 9.31658 13.9023 8.68342 14.2928 8.29289L15.5857 7L3.99994 7C3.44765 7 2.99994 6.55228 2.99994 6C2.99994 5.44771 3.44765 5 3.99994 5L15.5857 5L14.2928 3.70711C13.9023 3.31658 13.9023 2.68342 14.2928 2.29289C14.6834 1.90237 15.3165 1.90237 15.7071 2.29289L18.3535 4.93934C18.9393 5.52513 18.9393 6.47487 18.3535 7.06066L15.7071 9.70711C15.3165 10.0976 14.6834 10.0976 14.2928 9.70711ZM5.70703 10.2929C6.09756 10.6834 6.09756 11.3166 5.70703 11.7071L4.41414 13L15.9999 13C16.5522 13 16.9999 13.4477 16.9999 14C16.9999 14.5523 16.5522 15 15.9999 15L4.41414 15L5.70703 16.2929C6.09756 16.6834 6.09756 17.3166 5.70703 17.7071C5.31651 18.0976 4.68334 18.0976 4.29282 17.7071L1.64637 15.0607C1.06058 14.4749 1.06058 13.5251 1.64637 12.9393L4.29282 10.2929C4.68334 9.90237 5.31651 9.90237 5.70703 10.2929Z" fill="#CFD1D5"/>
</symbol>
<symbol id="computer" viewBox="0 0 20 20" fill="none" xmlns="http://www.w3.org/2000/svg">
    <path fill-rule="evenodd" clip-rule="evenodd" d="M16 4.85001H4V13.6H16V4.85001ZM4 2.85001C2.89543 2.85001 2 3.74544 2 4.85001V13.6C2 14.7046 2.89543 15.6 4 15.6H16C17.1046 15.6 18 14.7046 18 13.6V4.85001C18 3.74544 17.1046 2.85001 16 2.85001H4Z" fill="#F9FAFB"/>
    <path fill-rule="evenodd" clip-rule="evenodd" d="M14 18C14 18.5523 13.4883 19 12.8571 19L7.14286 19C6.51167 19 6 18.5523 6 18C6 17.4477 6.51167 17 7.14286 17L12.8571 17C13.4883 17 14 17.4477 14 18Z" fill="#F9FAFB"/>
    <path fill-rule="evenodd" clip-rule="evenodd" d="M10 13.9999C10.5523 13.9999 11 14.4476 11 14.9999V16.6999C11 17.2522 10.5523 17.6999 10 17.6999C9.44772 17.6999 9 17.2522 9 16.6999V14.9999C9 14.4476 9.44772 13.9999 10 13.9999Z" fill="#F9FAFB"/>
    <rect x="5" y="6.21402" width="2.14286" height="1.92857" rx="0.214286" fill="#F9FAFB"/>
    <rect x="5" y="6" width="1.07143" height="1.71429" rx="0.214286" fill="#F9FAFB"/>
    <rect x="5" y="9.21402" width="2.14286" height="1.92857" rx="0.214286" fill="#F9FAFB"/>
    <rect x="5" y="9" width="1.07143" height="1.71429" rx="0.214286" fill="#F9FAFB"/>
    <rect x="7.85742" y="6.21402" width="2.14286" height="1.92857" rx="0.214286" fill="#F9FAFB"/>
    <rect x="7.85742" y="6" width="1.07143" height="1.71429" rx="0.214286" fill="#F9FAFB"/>
    <rect x="11" y="6.21402" width="2.14286" height="1.92857" rx="0.214286" fill="#F9FAFB"/>
    <rect x="11" y="6" width="1.07143" height="1.71429" rx="0.214286" fill="#F9FAFB"/>
</symbol>
<svg width="7" height="10" id="player_pause_gray" viewBox="0 0 7 10" fill="none">
    <path fill-rule="evenodd" clip-rule="evenodd" d="M1 6.121e-05C1.55228 6.12326e-05 2 0.447776 2 1.00006L2 9.00006C2 9.55235 1.55229 10.0001 1 10.0001C0.447716 10.0001 2.39663e-07 9.55235 1.43099e-07 9.00006L1.74846e-07 1.00006C1.9749e-07 0.447776 0.447715 6.11874e-05 1 6.121e-05Z" fill="#CFD1D5"/>
    <path fill-rule="evenodd" clip-rule="evenodd" d="M6 6.121e-05C6.55228 6.12326e-05 7 0.447776 7 1.00006L7 9.00006C7 9.55235 6.55229 10.0001 6 10.0001C5.44772 10.0001 5 9.55235 5 9.00006L5 1.00006C5 0.447776 5.44772 6.11874e-05 6 6.121e-05Z" fill="#CFD1D5"/>
</svg>
<svg width="7" height="10" id="player_pause" viewBox="0 0 7 10" fill="none">
    <path fill-rule="evenodd" clip-rule="evenodd" d="M1 6.121e-05C1.55228 6.12326e-05 2 0.447776 2 1.00006L2 9.00006C2 9.55235 1.55229 10.0001 1 10.0001C0.447716 10.0001 2.39663e-07 9.55235 1.43099e-07 9.00006L1.74846e-07 1.00006C1.9749e-07 0.447776 0.447715 6.11874e-05 1 6.121e-05Z" fill="#3A4556"/>
    <path fill-rule="evenodd" clip-rule="evenodd" d="M6 6.121e-05C6.55228 6.12326e-05 7 0.447776 7 1.00006L7 9.00006C7 9.55235 6.55229 10.0001 6 10.0001C5.44772 10.0001 5 9.55235 5 9.00006L5 1.00006C5 0.447776 5.44772 6.11874e-05 6 6.121e-05Z" fill="#3A4556"/>
</svg>
<svg width="12" height="12" id="player_stop_gray" viewBox="0 0 12 12" fill="none">
    <path fill-rule="evenodd" clip-rule="evenodd" d="M2 0C0.895431 0 0 0.895431 0 2V10C0 11.1046 0.895431 12 2 12H10C11.1046 12 12 11.1046 12 10V2C12 0.895431 11.1046 0 10 0H2Z" fill="#CFD1D5"/>
</svg>
<svg width="12" height="12" id="player_stop" viewBox="0 0 12 12" fill="none">
    <path fill-rule="evenodd" clip-rule="evenodd" d="M2 0C0.895431 0 0 0.895431 0 2V10C0 11.1046 0.895431 12 2 12H10C11.1046 12 12 11.1046 12 10V2C12 0.895431 11.1046 0 10 0H2Z" fill="#3A4556"/>
</svg>
<svg width="7" height="12" id="player_play" viewBox="0 0 7 12" fill="none">
    <path d="M6.10198 6.3674L0.83914 11.2254C0.518856 11.5211 -3.08652e-08 11.2939 -4.99181e-08 10.858L-4.74619e-07 1.14199C-4.93671e-07 0.706114 0.518854 0.478943 0.839139 0.774591L6.10198 5.6326C6.31646 5.83058 6.31646 6.16942 6.10198 6.3674Z" fill="#3A4556"/>
</svg>
<svg width="7" height="12" id="player_play_gray" viewBox="0 0 7 12" fill="none">
    <path d="M6.10198 6.3674L0.83914 11.2254C0.518856 11.5211 -3.08652e-08 11.2939 -4.99181e-08 10.858L-4.74619e-07 1.14199C-4.93671e-07 0.706114 0.518854 0.478943 0.839139 0.774591L6.10198 5.6326C6.31646 5.83058 6.31646 6.16942 6.10198 6.3674Z" fill="#CFD1D5"/>
</svg>
<symbol id="user-with-nut" width="20" height="20" viewBox="0 0 20 20" xmlns="http://www.w3.org/2000/svg">
    <path fill-rule="evenodd" clip-rule="evenodd" d="M6.81532 9.09166C8.57259 9.09166 9.99714 7.66712 9.99714 5.90985C9.99714 4.15258 8.57259 2.72803 6.81532 2.72803C5.05805 2.72803 3.6335 4.15258 3.6335 5.90985C3.6335 7.66712 5.05805 9.09166 6.81532 9.09166ZM1.00311 16.3678C1.33999 13.4864 2.67534 10.9098 6.81532 10.9098C10.9553 10.9098 12.2906 13.4864 12.6275 16.3678C12.7441 17.3651 11.9104 18.1826 10.9062 18.1826H2.72441C1.72026 18.1826 0.886496 17.3651 1.00311 16.3678Z" fill="#3A4556"/>
    <path fill-rule="evenodd" clip-rule="evenodd" d="M13.3577 8.95672C13.7868 7.91937 15.2561 7.91937 15.6853 8.95672C15.9033 9.48386 16.4485 9.7986 17.014 9.72388C18.127 9.57685 18.8616 10.8493 18.1778 11.7396C17.8304 12.1921 17.8304 12.8216 18.1778 13.274C18.8616 14.1643 18.127 15.4368 17.014 15.2897C16.4485 15.215 15.9033 15.5298 15.6853 16.0569C15.273 17.0536 13.9003 17.0927 13.4128 16.174C13.4938 15.9535 13.526 15.7107 13.4962 15.4561C13.2585 13.4228 12.5236 11.5413 10.6567 10.6099C10.8252 10.062 11.3584 9.6353 12.0289 9.72388C12.5945 9.7986 13.1396 9.48386 13.3577 8.95672ZM15.8853 12.507C15.8853 13.2601 15.2748 13.8706 14.5217 13.8706C13.7686 13.8706 13.1581 13.2601 13.1581 12.507C13.1581 11.7539 13.7686 11.1434 14.5217 11.1434C15.2748 11.1434 15.8853 11.7539 15.8853 12.507Z" fill="#3A4556"/>
</symbol>
<symbol id="close-small" viewBox="0 0 11 11" fill="currentColor" xmlns="http://www.w3.org/2000/svg">
    <path fill-rule="evenodd" clip-rule="evenodd" d="M10.4727 2.62892C10.8633 2.2384 10.8633 1.60523 10.4727 1.21471C10.0822 0.824183 9.44904 0.824183 9.05852 1.21471L5.84369 4.42954L2.62898 1.21483C2.23846 0.824303 1.60529 0.824303 1.21477 1.21483C0.824244 1.60535 0.824244 2.23852 1.21477 2.62904L4.42948 5.84375L1.21477 9.05846C0.824247 9.44898 0.824247 10.0821 1.21477 10.4727C1.6053 10.8632 2.23846 10.8632 2.62898 10.4727L5.84369 7.25796L9.05852 10.4728C9.44904 10.8633 10.0822 10.8633 10.4727 10.4728C10.8633 10.0823 10.8633 9.4491 10.4727 9.05858L7.25791 5.84375L10.4727 2.62892Z" />
</symbol>
<symbol id="loader" viewBox="0 0 16 16" xmlns="http://www.w3.org/2000/svg">
    <path fill-rule="evenodd" clip-rule="evenodd" d="M8 12C10.2091 12 12 10.2091 12 8C12 5.79086 10.2091 4 8 4C5.79086 4 4 5.79086 4 8C4 10.2091 5.79086 12 8 12ZM8 14C11.3137 14 14 11.3137 14 8C14 4.68629 11.3137 2 8 2C4.68629 2 2 4.68629 2 8C2 11.3137 4.68629 14 8 14Z" fill="#CFD1D5"/>
    <path fill-rule="evenodd" clip-rule="evenodd" d="M10.9544 5.30336C11.6047 6.01529 12 6.96032 12 8H14C14 6.44192 13.4048 5.02055 12.4311 3.95453C11.3353 2.75484 9.75508 2 8 2C4.68629 2 2 4.68629 2 8C2 11.3137 4.68629 14 8 14V12C5.79086 12 4 10.2091 4 8C4 5.79086 5.79086 4 8 4C9.17001 4 10.2216 4.50105 10.9544 5.30336Z" fill="#8A9097"/>
</symbol>
<symbol id="surveys-counter" viewBox="0 0 16 17" xmlns="http://www.w3.org/2000/svg">
    <path fill-rule="evenodd" clip-rule="evenodd" d="M8.88716 0.507848C7.68078 0.381053 6.50889 0.529361 5.43394 0.902207C4.61565 1.18518 3.83102 1.60633 3.11467 2.16867C2.17467 2.90595 1.3994 3.85201 0.863799 4.94618C0.585117 5.51549 0.371317 6.1249 0.232954 6.76586C0.117933 7.29719 0.0571183 7.8389 0.0513007 8.38199C0.0440162 9.02253 0.113472 9.64925 0.251765 10.2524C0.525204 11.4493 1.07918 12.6009 1.92256 13.606C2.83398 14.6922 3.97261 15.4752 5.21062 15.944C5.4368 16.0297 5.66822 16.1056 5.90444 16.1711C6.58683 16.3604 7.29111 16.4585 7.99744 16.4635C8.70938 16.4691 9.40405 16.38 10.068 16.2069C11.1826 15.9173 12.2518 15.3814 13.1926 14.592L13.1997 14.5859C14.7289 13.3002 15.7814 11.4436 16.0067 9.29976C16.0529 8.86037 15.7341 8.46675 15.2948 8.42057C14.8554 8.37438 14.4617 8.69314 14.4156 9.13252C14.126 11.8879 12.1284 14.0503 9.5854 14.6783C9.1039 14.7969 8.61245 14.8583 8.12144 14.8634C7.87737 14.8658 7.63062 14.8543 7.38203 14.8282C4.54346 14.5298 2.33422 12.4188 1.78356 9.76622C1.69871 9.35607 1.65472 8.93998 1.65104 8.52426C1.64905 8.28338 1.66062 8.0399 1.6864 7.79463C1.71476 7.52481 1.75949 7.26067 1.81952 7.0031C2.12008 5.71342 2.8039 4.58847 3.73393 3.73923C3.80007 3.6789 3.86775 3.61966 3.93697 3.56158C4.00155 3.50739 4.0669 3.45469 4.13296 3.40347C4.66596 2.99066 5.26412 2.66129 5.90641 2.43239C8.15828 1.63222 10.7387 2.14645 12.5126 3.87579L11.4505 4.48902C11.1839 4.64297 11.1839 5.02785 11.4505 5.1818L15.0503 7.26014C15.317 7.41409 15.6503 7.22166 15.6503 6.91375V2.75706C15.6503 2.44916 15.317 2.25672 15.0503 2.41067L13.9409 3.05116C12.5835 1.57176 10.7837 0.714237 8.91538 0.511314C8.90603 0.509999 8.89662 0.508843 8.88716 0.507848ZM8.85078 4.46401C8.85078 4.0222 8.49263 3.66405 8.05083 3.66405C7.60902 3.66405 7.25087 4.0222 7.25087 4.46401V10.0637H12.0506C12.4924 10.0637 12.8506 9.70554 12.8506 9.26373C12.8506 8.82193 12.4924 8.46378 12.0506 8.46378H8.85078V4.46401Z" fill="#8A9097"/>
</symbol>
<symbol id="checkmark" width="12" height="9" viewBox="0 0 12 9" fill="none" xmlns="http://www.w3.org/2000/svg">
    <path fill-rule="evenodd" clip-rule="evenodd" d="M4.42355 8.26105L0.448068 5.62983C-0.0124795 5.32502 -0.138723 4.70456 0.166095 4.24402C0.470913 3.78347 1.09137 3.65722 1.55191 3.96204L4.23669 5.73899L10.3312 0.256567C10.7418 -0.112794 11.3741 -0.0793648 11.7434 0.331233C12.1128 0.741832 12.0794 1.37411 11.6688 1.74347L4.42355 8.26105Z" fill="#3A4556"/>
</symbol>
<svg id="wifi_but_strange" width="20" height="20" viewBox="0 0 20 20" fill="none" xmlns="http://www.w3.org/2000/svg">
    <path d="M9.99935 17.4999C11.8403 17.4999 13.3327 16.0075 13.3327 14.1666C13.3327 12.3256 11.8403 10.8333 9.99935 10.8333C8.1584 10.8333 6.66602 12.3256 6.66602 14.1666C6.66602 16.0075 8.1584 17.4999 9.99935 17.4999Z" fill="#8A9097"/>
    <path d="M9.99935 8.39167C11.6243 8.39167 13.0993 9.05 14.166 10.1167L18.3327 5.95C16.1993 3.825 13.2493 2.5 9.99935 2.5C6.74935 2.5 3.79935 3.825 1.66602 5.95833L5.83268 10.125C6.89935 9.05833 8.37435 8.39167 9.99935 8.39167Z" fill="#8A9097"/>
</svg>
<symbol id="chevronleft" viewBox="0 0 17 16" fill="currentColor">
    <path fill-rule="evenodd" clip-rule="evenodd" d="M10.8223 2.29289C11.2128 2.68342 11.2128 3.31658 10.8223 3.70711L6.52937 8L10.8223 12.2929C11.2128 12.6834 11.2128 13.3166 10.8223 13.7071C10.4317 14.0976 9.79858 14.0976 9.40805 13.7071L4.76161 9.06066C4.17582 8.47487 4.17582 7.52513 4.76161 6.93934L9.40805 2.29289C9.79858 1.90237 10.4317 1.90237 10.8223 2.29289Z" />
</symbol>
<symbol id="chevronallleft" viewBox="0 0 17 16" fill="currentColor">
    <path fill-rule="evenodd" clip-rule="evenodd" d="M4.06721 2C4.6195 2 5.06721 2.44772 5.06721 3L5.06721 13C5.06721 13.5523 4.6195 14 4.06721 14C3.51493 14 3.06721 13.5523 3.06721 13V3C3.06721 2.44772 3.51493 2 4.06721 2ZM12.7743 12.2929C13.1648 12.6834 13.1648 13.3166 12.7743 13.7071C12.3838 14.0976 11.7506 14.0976 11.3601 13.7071L6.71365 9.06066C6.12786 8.47487 6.12786 7.52513 6.71365 6.93934L11.3601 2.29289C11.7506 1.90237 12.3838 1.90237 12.7743 2.29289C13.1648 2.68342 13.1648 3.31658 12.7743 3.70711L8.48141 8L12.7743 12.2929Z" />
</symbol>
<symbol id="chevronright" viewBox="0 0 17 16" fill="currentColor">
    <path fill-rule="evenodd" clip-rule="evenodd" d="M5.86511 2.29289C5.47459 2.68342 5.47459 3.31658 5.86511 3.70711L10.158 8L5.86511 12.2929C5.47459 12.6834 5.47459 13.3166 5.86511 13.7071C6.25563 14.0976 6.8888 14.0976 7.27932 13.7071L11.9258 9.06066C12.5116 8.47487 12.5116 7.52513 11.9258 6.93934L7.27933 2.29289C6.8888 1.90237 6.25564 1.90237 5.86511 2.29289Z" />
</symbol>
<symbol id="chevronallright" viewBox="0 0 17 16" fill="currentColor">
    <path fill-rule="evenodd" clip-rule="evenodd" d="M12.6202 2C12.0679 2 11.6202 2.44772 11.6202 3L11.6202 13C11.6202 13.5523 12.0679 14 12.6202 14C13.1725 14 13.6202 13.5523 13.6202 13V3C13.6202 2.44772 13.1725 2 12.6202 2ZM3.91313 12.2929C3.52261 12.6834 3.52261 13.3166 3.91313 13.7071C4.30366 14.0976 4.93682 14.0976 5.32735 13.7071L9.97379 9.06066C10.5596 8.47487 10.5596 7.52513 9.97379 6.93934L5.32735 2.29289C4.93682 1.90237 4.30366 1.90237 3.91313 2.29289C3.52261 2.68342 3.52261 3.31658 3.91313 3.70711L8.20603 8L3.91313 12.2929Z" />
</symbol>
<svg id="clip2" width="12" height="14" viewBox="0 0 12 14" fill="none" xmlns="http://www.w3.org/2000/svg">
    <path fill-rule="evenodd" clip-rule="evenodd" d="M4.45039 2C3.31821 2 2.40039 2.91782 2.40039 4.05V9.27586C2.40039 10.7804 3.62003 12 5.12453 12H5.90039C7.83339 12 9.40039 10.433 9.40039 8.5L9.4004 3C9.4004 2.44771 9.84811 2 10.4004 2C10.9527 2 11.4004 2.44772 11.4004 3L11.4004 8.5C11.4004 11.5376 8.93796 14 5.90039 14H5.12453C2.51546 14 0.400391 11.8849 0.400391 9.27586V4.05C0.400391 1.81325 2.21364 0 4.45039 0C6.68714 0 8.50039 1.81325 8.50039 4.05V7.95C8.50039 9.35833 7.35872 10.5 5.95039 10.5C4.54206 10.5 3.40039 9.35833 3.40039 7.95V5C3.40039 4.44772 3.84811 4 4.40039 4C4.95268 4 5.40039 4.44772 5.40039 5V7.95C5.40039 8.25376 5.64663 8.5 5.95039 8.5C6.25415 8.5 6.50039 8.25376 6.50039 7.95V4.05C6.50039 2.91782 5.58257 2 4.45039 2Z" fill="#FF6C00"/>
</svg>
<svg id="info_fill2" width="16" height="16" viewBox="0 0 16 16" fill="none" xmlns="http://www.w3.org/2000/svg">
<path d="M15 8C15 11.866 11.866 15 8 15C4.13401 15 1 11.866 1 8C1 4.13401 4.13401 1 8 1C11.866 1 15 4.13401 15 8Z" fill="#FBDEC8"/>
<path fill-rule="evenodd" clip-rule="evenodd" d="M9 5C9 5.55228 8.55228 6 8 6C7.44772 6 7 5.55228 7 5C7 4.44772 7.44772 4 8 4C8.55228 4 9 4.44772 9 5ZM8 7C8.55228 7 9 7.44772 9 8V11C9 11.5523 8.55228 12 8 12C7.44772 12 7 11.5523 7 11V8C7 7.44772 7.44772 7 8 7Z" fill="white"/>
</svg>
<svg id="copy2" width="16" height="16" viewBox="0 0 16 16" fill="none" xmlns="http://www.w3.org/2000/svg">
<path fill-rule="evenodd" clip-rule="evenodd" d="M5.71484 2.28592C5.71484 1.65474 6.22652 1.14307 6.8577 1.14307H13.7148C14.346 1.14307 14.8577 1.65474 14.8577 2.28592V9.14307C14.8577 9.77425 14.346 10.2859 13.7148 10.2859H12.5725V4.57206C12.5725 3.94087 12.0609 3.4292 11.4297 3.4292H5.71484V2.28592ZM2.28544 5.71446C1.65425 5.71446 1.14258 6.22614 1.14258 6.85732V13.7145C1.14258 14.3456 1.65425 14.8573 2.28544 14.8573H9.14258C9.77376 14.8573 10.2854 14.3456 10.2854 13.7145V6.85732C10.2854 6.22614 9.77376 5.71446 9.14258 5.71446H2.28544Z" fill="#FF6C00"/>
</svg>
</defs>
</svg>
